<svg version="1.1" viewBox="0.0 0.0 256.0 256.0" fill="none" stroke="none" stroke-linecap="square" stroke-miterlimit="10" xmlns:xlink="http://www.w3.org/1999/xlink" xmlns="http://www.w3.org/2000/svg"><clipPath id="p.0"><path d="m0 0l256.0 0l0 256.0l-256.0 0l0 -256.0z" clip-rule="nonzero"/></clipPath><g clip-path="url(#p.0)"><path fill="#000000" fill-opacity="0.0" d="m0 0l256.0 0l0 256.0l-256.0 0z" fill-rule="evenodd"/><path fill="#d991b3" d="m68.01085 128.75085l109.133865 -35.968506l11.307083 34.33071l-109.13386 35.9685z" fill-rule="evenodd"/><path stroke="#d991b3" stroke-width="1.0" stroke-linejoin="round" stroke-linecap="butt" d="m68.01085 128.75085l109.133865 -35.968506l11.307083 34.33071l-109.13386 35.9685z" fill-rule="evenodd"/><path fill="#d991b3" d="m24.105152 143.32538l0 0c-3.748579 -11.37619 5.9671955 -24.800598 21.700787 -29.984253l0 0c15.733593 -5.183647 31.527016 -0.1635971 35.27559 11.212601l0 0c3.748581 11.37619 -5.9671936 24.800598 -21.700787 29.984253l0 0c-15.733589 5.183655 -31.52701 0.16360474 -35.27559 -11.212601z" fill-rule="evenodd"/><path stroke="#d991b3" stroke-width="1.0" stroke-linejoin="round" stroke-linecap="butt" d="m24.105152 143.32538l0 0c-3.748579 -11.37619 5.9671955 -24.800598 21.700787 -29.984253l0 0c15.733593 -5.183647 31.527016 -0.1635971 35.27559 11.212601l0 0c3.748581 11.37619 -5.9671936 24.800598 -21.700787 29.984253l0 0c-15.733589 5.183655 -31.52701 0.16360474 -35.27559 -11.212601z" fill-rule="evenodd"/><path fill="#d991b3" d="m35.35655 177.4611l0 0c-3.748579 -11.37619 5.9671936 -24.800598 21.700787 -29.984253l0 0c15.733589 -5.1836395 31.527016 -0.16358948 35.27559 11.212601l0 0c3.748581 11.376205 -5.9671936 24.800613 -21.700783 29.984253l0 0c-15.733593 5.183655 -31.527016 0.16360474 -35.275593 -11.212601z" fill-rule="evenodd"/><path stroke="#d991b3" stroke-width="1.0" stroke-linejoin="round" stroke-linecap="butt" d="m35.35655 177.4611l0 0c-3.748579 -11.37619 5.9671936 -24.800598 21.700787 -29.984253l0 0c15.733589 -5.1836395 31.527016 -0.16358948 35.27559 11.212601l0 0c3.748581 11.376205 -5.9671936 24.800613 -21.700783 29.984253l0 0c-15.733593 5.183655 -31.527016 0.16360474 -35.275593 -11.212601z" fill-rule="evenodd"/><path fill="#d991b3" d="m163.65726 97.32794l0 0c-3.748581 -11.37619 5.9671936 -24.800598 21.70079 -29.984245l0 0c15.733582 -5.183651 31.527008 -0.1635971 35.27559 11.212593l0 0c3.748581 11.376198 -5.9671936 24.800606 -21.70079 29.984253l0 0c-15.733597 5.183647 -31.527008 0.1635971 -35.27559 -11.212601z" fill-rule="evenodd"/><path stroke="#d991b3" stroke-width="1.0" stroke-linejoin="round" stroke-linecap="butt" d="m163.65726 97.32794l0 0c-3.748581 -11.37619 5.9671936 -24.800598 21.70079 -29.984245l0 0c15.733582 -5.183651 31.527008 -0.1635971 35.27559 11.212593l0 0c3.748581 11.376198 -5.9671936 24.800606 -21.70079 29.984253l0 0c-15.733597 5.183647 -31.527008 0.1635971 -35.27559 -11.212601z" fill-rule="evenodd"/><path fill="#d991b3" d="m174.90865 131.46367l0 0c-3.7485657 -11.37619 5.967209 -24.800598 21.70079 -29.984245l0 0c15.733597 -5.183647 31.527023 -0.1635971 35.27559 11.212601l0 0c3.748581 11.37619 -5.9671936 24.800606 -21.700775 29.984245l0 0c-15.733597 5.183655 -31.527023 0.16360474 -35.275604 -11.212601z" fill-rule="evenodd"/><path stroke="#d991b3" stroke-width="1.0" stroke-linejoin="round" stroke-linecap="butt" d="m174.90865 131.46367l0 0c-3.7485657 -11.37619 5.967209 -24.800598 21.70079 -29.984245l0 0c15.733597 -5.183647 31.527023 -0.1635971 35.27559 11.212601l0 0c3.748581 11.37619 -5.9671936 24.800606 -21.700775 29.984245l0 0c-15.733597 5.183655 -31.527023 0.16360474 -35.275604 -11.212601z" fill-rule="evenodd"/></g></svg>