<svg version="1.1" viewBox="0.0 0.0 256.0 256.0" fill="none" stroke="none" stroke-linecap="square" stroke-miterlimit="10" xmlns:xlink="http://www.w3.org/1999/xlink" xmlns="http://www.w3.org/2000/svg"><clipPath id="p.0"><path d="m0 0l256.0 0l0 256.0l-256.0 0l0 -256.0z" clip-rule="nonzero"/></clipPath><g clip-path="url(#p.0)"><path fill="#000000" fill-opacity="0.0" d="m0 0l256.0 0l0 256.0l-256.0 0z" fill-rule="evenodd"/><path fill="#d991b3" d="m58.809784 111.536156l0 0c-2.4178772 -11.706703 5.1122017 -23.156929 16.818901 -25.574806l0 0c5.62175 -1.1611023 11.474503 -0.041419983 16.270706 3.112732c4.7962036 3.1541595 8.14299 8.084412 9.304092 13.706169l0 0c2.4178772 11.706696 -5.112198 23.156921 -16.818893 25.574806l0 0c-11.706703 2.4178772 -23.156929 -5.1122055 -25.574806 -16.818901z" fill-rule="evenodd"/><path stroke="#d991b3" stroke-width="1.0" stroke-linejoin="round" stroke-linecap="butt" d="m58.809784 111.536156l0 0c-2.4178772 -11.706703 5.1122017 -23.156929 16.818901 -25.574806l0 0c5.62175 -1.1611023 11.474503 -0.041419983 16.270706 3.112732c4.7962036 3.1541595 8.14299 8.084412 9.304092 13.706169l0 0c2.4178772 11.706696 -5.112198 23.156921 -16.818893 25.574806l0 0c-11.706703 2.4178772 -23.156929 -5.1122055 -25.574806 -16.818901z" fill-rule="evenodd"/><path fill="#d991b3" d="m103.95363 96.67616l0 0c-3.0179977 -14.620323 6.3875504 -28.919014 21.007874 -31.937012l0 0c7.02092 -1.4492912 14.330032 -0.0501709 20.319382 3.8895721c5.9893494 3.9397354 10.168335 10.097374 11.61763 17.118301l0 0c3.01799 14.620331 -6.387558 28.919014 -21.007874 31.937012l0 0c-14.620331 3.0179977 -28.919014 -6.3875504 -31.937012 -21.007874z" fill-rule="evenodd"/><path stroke="#d991b3" stroke-width="1.0" stroke-linejoin="round" stroke-linecap="butt" d="m103.95363 96.67616l0 0c-3.0179977 -14.620323 6.3875504 -28.919014 21.007874 -31.937012l0 0c7.02092 -1.4492912 14.330032 -0.0501709 20.319382 3.8895721c5.9893494 3.9397354 10.168335 10.097374 11.61763 17.118301l0 0c3.01799 14.620331 -6.387558 28.919014 -21.007874 31.937012l0 0c-14.620331 3.0179977 -28.919014 -6.3875504 -31.937012 -21.007874z" fill-rule="evenodd"/><path fill="#d991b3" d="m66.306496 147.80173l0 0c-1.116188 -5.4040985 2.3596802 -10.690613 7.7635727 -11.80777l79.61188 -16.458351c2.595047 -0.53647614 5.2967224 -0.020065308 7.5107117 1.4356232c2.2139893 1.4556885 3.7589264 3.7314224 4.294937 6.326561l8.083908 39.138718c1.1161957 5.4040833 -2.3596802 10.690598 -7.763565 11.80777l-79.611885 16.458344c-5.4038925 1.117157 -10.689461 -2.3580933 -11.805649 -7.7621765z" fill-rule="evenodd"/><path stroke="#d991b3" stroke-width="1.0" stroke-linejoin="round" stroke-linecap="butt" d="m66.306496 147.80173l0 0c-1.116188 -5.4040985 2.3596802 -10.690613 7.7635727 -11.80777l79.61188 -16.458351c2.595047 -0.53647614 5.2967224 -0.020065308 7.5107117 1.4356232c2.2139893 1.4556885 3.7589264 3.7314224 4.294937 6.326561l8.083908 39.138718c1.1161957 5.4040833 -2.3596802 10.690598 -7.763565 11.80777l-79.611885 16.458344c-5.4038925 1.117157 -10.689461 -2.3580933 -11.805649 -7.7621765z" fill-rule="evenodd"/><path fill="#000000" fill-opacity="0.0" d="m63.0454 110.64889l0 0c-1.9308205 -9.358398 4.09042 -18.510124 13.448818 -20.440948l0 0c4.4940643 -0.92720795 9.172394 -0.031188965 13.005814 2.4909515c3.8334198 2.5221481 6.5079193 6.463806 7.435135 10.9578705l0 0c1.9308167 9.358398 -4.0904236 18.510124 -13.448822 20.440948l0 0c-9.358398 1.9308167 -18.510124 -4.0904236 -20.440945 -13.448822z" fill-rule="evenodd"/><path stroke="#ffffff" stroke-width="3.0" stroke-linejoin="round" stroke-linecap="butt" d="m63.0454 110.64889l0 0c-1.9308205 -9.358398 4.09042 -18.510124 13.448818 -20.440948l0 0c4.4940643 -0.92720795 9.172394 -0.031188965 13.005814 2.4909515c3.8334198 2.5221481 6.5079193 6.463806 7.435135 10.9578705l0 0c1.9308167 9.358398 -4.0904236 18.510124 -13.448822 20.440948l0 0c-9.358398 1.9308167 -18.510124 -4.0904236 -20.440945 -13.448822z" fill-rule="evenodd"/><path fill="#000000" fill-opacity="0.0" d="m109.24994 95.597275l0 0c-2.4178772 -11.706696 5.112198 -23.156929 16.818893 -25.574806l0 0c5.62175 -1.1611023 11.474503 -0.041419983 16.270706 3.112732c4.7962036 3.1541595 8.14299 8.084412 9.304092 13.706169l0 0c2.4178772 11.706696 -5.112198 23.156921 -16.818893 25.574799l0 0c-11.706696 2.4178772 -23.156921 -5.112198 -25.574799 -16.818893z" fill-rule="evenodd"/><path stroke="#ffffff" stroke-width="4.0" stroke-linejoin="round" stroke-linecap="butt" d="m109.24994 95.597275l0 0c-2.4178772 -11.706696 5.112198 -23.156929 16.818893 -25.574806l0 0c5.62175 -1.1611023 11.474503 -0.041419983 16.270706 3.112732c4.7962036 3.1541595 8.14299 8.084412 9.304092 13.706169l0 0c2.4178772 11.706696 -5.112198 23.156921 -16.818893 25.574799l0 0c-11.706696 2.4178772 -23.156921 -5.112198 -25.574799 -16.818893z" fill-rule="evenodd"/><path fill="#d991b3" d="m167.60785 124.745056l7.700775 -1.6850433l0 0c4.2530365 -0.9306183 9.498703 7.565399 11.716537 18.97638c2.2178345 11.41098 0.56799316 21.415833 -3.685028 22.34645l-7.7007904 1.6850433z" fill-rule="evenodd"/><path stroke="#d991b3" stroke-width="1.0" stroke-linejoin="round" stroke-linecap="butt" d="m167.60785 124.745056l7.700775 -1.6850433l0 0c4.2530365 -0.9306183 9.498703 7.565399 11.716537 18.97638c2.2178345 11.41098 0.56799316 21.415833 -3.685028 22.34645l-7.7007904 1.6850433z" fill-rule="evenodd"/><path fill="#d991b3" d="m201.56816 163.25182l-22.497192 -0.6950989l-6.9426117 -35.68068l20.400436 -10.080917z" fill-rule="evenodd"/><path stroke="#d991b3" stroke-width="1.0" stroke-linejoin="round" stroke-linecap="butt" d="m201.56816 163.25182l-22.497192 -0.6950989l-6.9426117 -35.68068l20.400436 -10.080917z" fill-rule="evenodd"/></g></svg>