<svg version="1.1" viewBox="0.0 0.0 256.0 256.0" fill="none" stroke="none" stroke-linecap="square" stroke-miterlimit="10" xmlns:xlink="http://www.w3.org/1999/xlink" xmlns="http://www.w3.org/2000/svg"><clipPath id="p.0"><path d="m0 0l256.0 0l0 256.0l-256.0 0l0 -256.0z" clip-rule="nonzero"/></clipPath><g clip-path="url(#p.0)"><path fill="#000000" fill-opacity="0.0" d="m0 0l256.0 0l0 256.0l-256.0 0z" fill-rule="evenodd"/><path fill="#000000" fill-opacity="0.0" d="m31.370079 102.30979l0 0c0 -2.2236786 1.8026466 -4.026329 4.026325 -4.026329l16.104828 0l0 0c1.0678482 0 2.091961 0.42420197 2.847042 1.1792831c0.755085 0.7550888 1.1792831 1.7791977 1.1792831 2.847046l0 55.821358c0 2.2236786 -1.8026466 4.0263367 -4.026325 4.0263367l-16.104828 0c-2.2236786 0 -4.026325 -1.8026581 -4.026325 -4.0263367z" fill-rule="evenodd"/><path stroke="#d991b3" stroke-width="1.0" stroke-linejoin="round" stroke-linecap="butt" d="m31.370079 102.30979l0 0c0 -2.2236786 1.8026466 -4.026329 4.026325 -4.026329l16.104828 0l0 0c1.0678482 0 2.091961 0.42420197 2.847042 1.1792831c0.755085 0.7550888 1.1792831 1.7791977 1.1792831 2.847046l0 55.821358c0 2.2236786 -1.8026466 4.0263367 -4.026325 4.0263367l-16.104828 0c-2.2236786 0 -4.026325 -1.8026581 -4.026325 -4.0263367z" fill-rule="evenodd"/><path fill="#000000" fill-opacity="0.0" d="m55.527557 102.30979l0 0c0 -2.2236786 1.8026505 -4.026329 4.026329 -4.026329l16.104828 0l0 0c1.0678482 0 2.091957 0.42420197 2.8470383 1.1792831c0.7550888 0.7550888 1.1792831 1.7791977 1.1792831 2.847046l0 55.821358c0 2.2236786 -1.8026428 4.0263367 -4.0263214 4.0263367l-16.104828 0c-2.2236786 0 -4.026329 -1.8026581 -4.026329 -4.0263367z" fill-rule="evenodd"/><path stroke="#d991b3" stroke-width="1.0" stroke-linejoin="round" stroke-linecap="butt" d="m55.527557 102.30979l0 0c0 -2.2236786 1.8026505 -4.026329 4.026329 -4.026329l16.104828 0l0 0c1.0678482 0 2.091957 0.42420197 2.8470383 1.1792831c0.7550888 0.7550888 1.1792831 1.7791977 1.1792831 2.847046l0 55.821358c0 2.2236786 -1.8026428 4.0263367 -4.0263214 4.0263367l-16.104828 0c-2.2236786 0 -4.026329 -1.8026581 -4.026329 -4.0263367z" fill-rule="evenodd"/><path fill="#000000" fill-opacity="0.0" d="m79.685036 102.30979l0 0c0 -2.2236786 1.8026505 -4.026329 4.026329 -4.026329l16.104828 0l0 0c1.0678482 0 2.091957 0.42420197 2.847046 1.1792831c0.7550812 0.7550888 1.1792831 1.7791977 1.1792831 2.847046l0 55.821358c0 2.2236786 -1.8026505 4.0263367 -4.026329 4.0263367l-16.104828 0c-2.2236786 0 -4.026329 -1.8026581 -4.026329 -4.0263367z" fill-rule="evenodd"/><path stroke="#d991b3" stroke-width="1.0" stroke-linejoin="round" stroke-linecap="butt" d="m79.685036 102.30979l0 0c0 -2.2236786 1.8026505 -4.026329 4.026329 -4.026329l16.104828 0l0 0c1.0678482 0 2.091957 0.42420197 2.847046 1.1792831c0.7550812 0.7550888 1.1792831 1.7791977 1.1792831 2.847046l0 55.821358c0 2.2236786 -1.8026505 4.0263367 -4.026329 4.0263367l-16.104828 0c-2.2236786 0 -4.026329 -1.8026581 -4.026329 -4.0263367z" fill-rule="evenodd"/><path fill="#000000" fill-opacity="0.0" d="m103.84252 102.30979l0 0c0 -2.2236786 1.8026428 -4.026329 4.026329 -4.026329l16.10482 0l0 0c1.0678482 0 2.0919647 0.42420197 2.847046 1.1792831c0.7550812 0.7550888 1.1792831 1.7791977 1.1792831 2.847046l0 55.821358c0 2.2236786 -1.8026505 4.0263367 -4.026329 4.0263367l-16.10482 0c-2.2236862 0 -4.026329 -1.8026581 -4.026329 -4.0263367z" fill-rule="evenodd"/><path stroke="#d991b3" stroke-width="1.0" stroke-linejoin="round" stroke-linecap="butt" d="m103.84252 102.30979l0 0c0 -2.2236786 1.8026428 -4.026329 4.026329 -4.026329l16.10482 0l0 0c1.0678482 0 2.0919647 0.42420197 2.847046 1.1792831c0.7550812 0.7550888 1.1792831 1.7791977 1.1792831 2.847046l0 55.821358c0 2.2236786 -1.8026505 4.0263367 -4.026329 4.0263367l-16.10482 0c-2.2236862 0 -4.026329 -1.8026581 -4.026329 -4.0263367z" fill-rule="evenodd"/><path fill="#000000" fill-opacity="0.0" d="m128.0 102.30979l0 0c0 -2.2236786 1.8026428 -4.026329 4.0263214 -4.026329l16.104828 0l0 0c1.0678558 0 2.0919647 0.42420197 2.847046 1.1792831c0.7550812 0.7550888 1.1792908 1.7791977 1.1792908 2.847046l0 55.821358c0 2.2236786 -1.8026581 4.0263367 -4.0263367 4.0263367l-16.104828 0c-2.2236786 0 -4.0263214 -1.8026581 -4.0263214 -4.0263367z" fill-rule="evenodd"/><path stroke="#d991b3" stroke-width="1.0" stroke-linejoin="round" stroke-linecap="butt" d="m128.0 102.30979l0 0c0 -2.2236786 1.8026428 -4.026329 4.0263214 -4.026329l16.104828 0l0 0c1.0678558 0 2.0919647 0.42420197 2.847046 1.1792831c0.7550812 0.7550888 1.1792908 1.7791977 1.1792908 2.847046l0 55.821358c0 2.2236786 -1.8026581 4.0263367 -4.0263367 4.0263367l-16.104828 0c-2.2236786 0 -4.0263214 -1.8026581 -4.0263214 -4.0263367z" fill-rule="evenodd"/><path fill="#000000" fill-opacity="0.0" d="m152.15749 102.30979l0 0c0 -2.2236786 1.8026428 -4.026329 4.0263214 -4.026329l16.104828 0l0 0c1.0678406 0 2.0919647 0.42420197 2.847046 1.1792831c0.7550812 0.7550888 1.1792755 1.7791977 1.1792755 2.847046l0 55.821358c0 2.2236786 -1.8026428 4.0263367 -4.0263214 4.0263367l-16.104828 0c-2.2236786 0 -4.0263214 -1.8026581 -4.0263214 -4.0263367z" fill-rule="evenodd"/><path stroke="#d991b3" stroke-width="1.0" stroke-linejoin="round" stroke-linecap="butt" d="m152.15749 102.30979l0 0c0 -2.2236786 1.8026428 -4.026329 4.0263214 -4.026329l16.104828 0l0 0c1.0678406 0 2.0919647 0.42420197 2.847046 1.1792831c0.7550812 0.7550888 1.1792755 1.7791977 1.1792755 2.847046l0 55.821358c0 2.2236786 -1.8026428 4.0263367 -4.0263214 4.0263367l-16.104828 0c-2.2236786 0 -4.0263214 -1.8026581 -4.0263214 -4.0263367z" fill-rule="evenodd"/><path fill="#000000" fill-opacity="0.0" d="m176.31496 102.30979l0 0c0 -2.2236786 1.8026581 -4.026329 4.0263367 -4.026329l16.104828 0l0 0c1.0678406 0 2.0919495 0.42420197 2.8470306 1.1792831c0.7550812 0.7550888 1.1792908 1.7791977 1.1792908 2.847046l0 55.821358c0 2.2236786 -1.8026428 4.0263367 -4.0263214 4.0263367l-16.104828 0c-2.2236786 0 -4.0263367 -1.8026581 -4.0263367 -4.0263367z" fill-rule="evenodd"/><path stroke="#d991b3" stroke-width="1.0" stroke-linejoin="round" stroke-linecap="butt" d="m176.31496 102.30979l0 0c0 -2.2236786 1.8026581 -4.026329 4.0263367 -4.026329l16.104828 0l0 0c1.0678406 0 2.0919495 0.42420197 2.8470306 1.1792831c0.7550812 0.7550888 1.1792908 1.7791977 1.1792908 2.847046l0 55.821358c0 2.2236786 -1.8026428 4.0263367 -4.0263214 4.0263367l-16.104828 0c-2.2236786 0 -4.0263367 -1.8026581 -4.0263367 -4.0263367z" fill-rule="evenodd"/><path fill="#000000" fill-opacity="0.0" d="m200.47244 102.30979l0 0c0 -2.2236786 1.8026428 -4.026329 4.0263214 -4.026329l16.104828 0l0 0c1.0678558 0 2.0919647 0.42420197 2.847046 1.1792831c0.7550812 0.7550888 1.1792908 1.7791977 1.1792908 2.847046l0 55.821358c0 2.2236786 -1.8026581 4.0263367 -4.0263367 4.0263367l-16.104828 0c-2.2236786 0 -4.0263214 -1.8026581 -4.0263214 -4.0263367z" fill-rule="evenodd"/><path stroke="#d991b3" stroke-width="1.0" stroke-linejoin="round" stroke-linecap="butt" d="m200.47244 102.30979l0 0c0 -2.2236786 1.8026428 -4.026329 4.0263214 -4.026329l16.104828 0l0 0c1.0678558 0 2.0919647 0.42420197 2.847046 1.1792831c0.7550812 0.7550888 1.1792908 1.7791977 1.1792908 2.847046l0 55.821358c0 2.2236786 -1.8026581 4.0263367 -4.0263367 4.0263367l-16.104828 0c-2.2236786 0 -4.0263214 -1.8026581 -4.0263214 -4.0263367z" fill-rule="evenodd"/><path fill="#d991b3" d="m31.370079 93.84252l193.25986 0l0 10.866142l-193.25986 0z" fill-rule="evenodd"/><path stroke="#d991b3" stroke-width="1.0" stroke-linejoin="round" stroke-linecap="butt" d="m31.370079 93.84252l193.25986 0l0 10.866142l-193.25986 0z" fill-rule="evenodd"/><path fill="#d991b3" d="m48.624672 96.17853l0 0c0 -1.2901459 1.0458641 -2.3360062 2.3360062 -2.3360062l9.343739 0l0 0c0.619545 0 1.2137184 0.24610901 1.6518021 0.6841965c0.43808746 0.43808746 0.6842003 1.0322571 0.6842003 1.6518097l0 42.666565c0 1.2901459 -1.0458641 2.3360138 -2.3360023 2.3360138l-9.343739 0c-1.290142 0 -2.3360062 -1.0458679 -2.3360062 -2.3360138z" fill-rule="evenodd"/><path stroke="#d991b3" stroke-width="1.0" stroke-linejoin="round" stroke-linecap="butt" d="m48.624672 96.17853l0 0c0 -1.2901459 1.0458641 -2.3360062 2.3360062 -2.3360062l9.343739 0l0 0c0.619545 0 1.2137184 0.24610901 1.6518021 0.6841965c0.43808746 0.43808746 0.6842003 1.0322571 0.6842003 1.6518097l0 42.666565c0 1.2901459 -1.0458641 2.3360138 -2.3360023 2.3360138l-9.343739 0c-1.290142 0 -2.3360062 -1.0458679 -2.3360062 -2.3360138z" fill-rule="evenodd"/><path fill="#d991b3" d="m72.67716 96.17853l0 0c0 -1.2901459 1.0458679 -2.3360062 2.3360062 -2.3360062l9.343742 0l0 0c0.619545 0 1.2137146 0.24610901 1.6518021 0.6841965c0.43808746 0.43808746 0.6842041 1.0322571 0.6842041 1.6518097l0 42.666565c0 1.2901459 -1.0458679 2.3360138 -2.3360062 2.3360138l-9.343742 0c-1.2901382 0 -2.3360062 -1.0458679 -2.3360062 -2.3360138z" fill-rule="evenodd"/><path stroke="#d991b3" stroke-width="1.0" stroke-linejoin="round" stroke-linecap="butt" d="m72.67716 96.17853l0 0c0 -1.2901459 1.0458679 -2.3360062 2.3360062 -2.3360062l9.343742 0l0 0c0.619545 0 1.2137146 0.24610901 1.6518021 0.6841965c0.43808746 0.43808746 0.6842041 1.0322571 0.6842041 1.6518097l0 42.666565c0 1.2901459 -1.0458679 2.3360138 -2.3360062 2.3360138l-9.343742 0c-1.2901382 0 -2.3360062 -1.0458679 -2.3360062 -2.3360138z" fill-rule="evenodd"/><path fill="#d991b3" d="m120.99213 96.17853l0 0c0 -1.2901459 1.0458679 -2.3360062 2.3360062 -2.3360062l9.343742 0l0 0c0.61953735 0 1.2137146 0.24610901 1.6517944 0.6841965c0.4380951 0.43808746 0.6842041 1.0322571 0.6842041 1.6518097l0 42.666565c0 1.2901459 -1.0458679 2.3360138 -2.3359985 2.3360138l-9.343742 0c-1.2901382 0 -2.3360062 -1.0458679 -2.3360062 -2.3360138z" fill-rule="evenodd"/><path stroke="#d991b3" stroke-width="1.0" stroke-linejoin="round" stroke-linecap="butt" d="m120.99213 96.17853l0 0c0 -1.2901459 1.0458679 -2.3360062 2.3360062 -2.3360062l9.343742 0l0 0c0.61953735 0 1.2137146 0.24610901 1.6517944 0.6841965c0.4380951 0.43808746 0.6842041 1.0322571 0.6842041 1.6518097l0 42.666565c0 1.2901459 -1.0458679 2.3360138 -2.3359985 2.3360138l-9.343742 0c-1.2901382 0 -2.3360062 -1.0458679 -2.3360062 -2.3360138z" fill-rule="evenodd"/><path fill="#d991b3" d="m145.14961 96.17853l0 0c0 -1.2901459 1.0458527 -2.3360062 2.3359985 -2.3360062l9.343735 0l0 0c0.6195526 0 1.2137299 0.24610901 1.6518097 0.6841965c0.43807983 0.43808746 0.6842041 1.0322571 0.6842041 1.6518097l0 42.666565c0 1.2901459 -1.0458679 2.3360138 -2.3360138 2.3360138l-9.343735 0c-1.2901459 0 -2.3359985 -1.0458679 -2.3359985 -2.3360138z" fill-rule="evenodd"/><path stroke="#d991b3" stroke-width="1.0" stroke-linejoin="round" stroke-linecap="butt" d="m145.14961 96.17853l0 0c0 -1.2901459 1.0458527 -2.3360062 2.3359985 -2.3360062l9.343735 0l0 0c0.6195526 0 1.2137299 0.24610901 1.6518097 0.6841965c0.43807983 0.43808746 0.6842041 1.0322571 0.6842041 1.6518097l0 42.666565c0 1.2901459 -1.0458679 2.3360138 -2.3360138 2.3360138l-9.343735 0c-1.2901459 0 -2.3359985 -1.0458679 -2.3359985 -2.3360138z" fill-rule="evenodd"/><path fill="#d991b3" d="m169.30708 96.17853l0 0c0 -1.2901459 1.0458679 -2.3360062 2.3360138 -2.3360062l9.343735 0l0 0c0.6195526 0 1.2137146 0.24610901 1.6518097 0.6841965c0.43807983 0.43808746 0.68418884 1.0322571 0.68418884 1.6518097l0 42.666565c0 1.2901459 -1.0458679 2.3360138 -2.3359985 2.3360138l-9.343735 0c-1.2901459 0 -2.3360138 -1.0458679 -2.3360138 -2.3360138z" fill-rule="evenodd"/><path stroke="#d991b3" stroke-width="1.0" stroke-linejoin="round" stroke-linecap="butt" d="m169.30708 96.17853l0 0c0 -1.2901459 1.0458679 -2.3360062 2.3360138 -2.3360062l9.343735 0l0 0c0.6195526 0 1.2137146 0.24610901 1.6518097 0.6841965c0.43807983 0.43808746 0.68418884 1.0322571 0.68418884 1.6518097l0 42.666565c0 1.2901459 -1.0458679 2.3360138 -2.3359985 2.3360138l-9.343735 0c-1.2901459 0 -2.3360138 -1.0458679 -2.3360138 -2.3360138z" fill-rule="evenodd"/></g></svg>