<svg version="1.1" viewBox="0.0 0.0 256.0 256.0" fill="none" stroke="none" stroke-linecap="square" stroke-miterlimit="10" xmlns:xlink="http://www.w3.org/1999/xlink" xmlns="http://www.w3.org/2000/svg"><clipPath id="p.0"><path d="m0 0l256.0 0l0 256.0l-256.0 0l0 -256.0z" clip-rule="nonzero"/></clipPath><g clip-path="url(#p.0)"><path fill="#000000" fill-opacity="0.0" d="m0 0l256.0 0l0 256.0l-256.0 0z" fill-rule="evenodd"/><path fill="#d991b3" d="m9.653543 128.0l0 0c0 -46.992043 52.98551 -85.08661 118.34646 -85.08661l0 0c65.36095 0 118.34645 38.09457 118.34645 85.08661l0 0c0 46.992035 -52.985504 85.08661 -118.34645 85.08661l0 0c-65.36095 0 -118.34646 -38.094574 -118.34646 -85.08661z" fill-rule="evenodd"/><path fill="#d991b3" d="m39.086613 114.59843l0 0c0 -27.605545 39.80788 -49.984253 88.91339 -49.984253l0 0c49.105515 0 88.91339 22.378708 88.91339 49.984253l0 0c0 27.605537 -39.807877 49.984245 -88.91339 49.984245l0 0c-49.105507 0 -88.91339 -22.378708 -88.91339 -49.984245z" fill-rule="evenodd"/><path stroke="#ffffff" stroke-width="3.0" stroke-linejoin="round" stroke-linecap="butt" d="m39.086613 114.59843l0 0c0 -27.605545 39.80788 -49.984253 88.91339 -49.984253l0 0c49.105515 0 88.91339 22.378708 88.91339 49.984253l0 0c0 27.605537 -39.807877 49.984245 -88.91339 49.984245l0 0c-49.105507 0 -88.91339 -22.378708 -88.91339 -49.984245z" fill-rule="evenodd"/><path fill="#d991b3" d="m35.76436 127.6036l11.094269 47.338585l162.2839 0l11.094269 -47.338585z" fill-rule="evenodd"/><path stroke="#ffffff" stroke-width="3.0" stroke-linejoin="round" stroke-linecap="butt" d="m35.76436 127.6036l11.094269 47.338585l162.2839 0l11.094269 -47.338585z" fill-rule="evenodd"/><path fill="#000000" fill-opacity="0.0" d="m61.230972 122.15354l0 0c-4.439766 4.439766 -10.46138 6.933998 -16.740158 6.933998c-6.278778 0 -12.300392 -2.4942322 -16.740158 -6.933998l16.740158 -16.740158z" fill-rule="evenodd"/><path fill="#000000" fill-opacity="0.0" d="m61.230972 122.15354l0 0c-4.439766 4.439766 -10.46138 6.933998 -16.740158 6.933998c-6.278778 0 -12.300392 -2.4942322 -16.740158 -6.933998" fill-rule="evenodd"/><path stroke="#ffffff" stroke-width="12.0" stroke-linejoin="round" stroke-linecap="butt" d="m61.230972 122.15354l0 0c-4.439766 4.439766 -10.46138 6.933998 -16.740158 6.933998c-6.278778 0 -12.300392 -2.4942322 -16.740158 -6.933998" fill-rule="evenodd"/><path fill="#000000" fill-opacity="0.0" d="m102.13123 122.15354l0 0c-4.439766 4.439766 -10.46138 6.933998 -16.740158 6.933998c-6.278778 0 -12.300392 -2.4942322 -16.740158 -6.933998l16.740158 -16.740158z" fill-rule="evenodd"/><path fill="#000000" fill-opacity="0.0" d="m102.13123 122.15354l0 0c-4.439766 4.439766 -10.46138 6.933998 -16.740158 6.933998c-6.278778 0 -12.300392 -2.4942322 -16.740158 -6.933998" fill-rule="evenodd"/><path stroke="#ffffff" stroke-width="12.0" stroke-linejoin="round" stroke-linecap="butt" d="m102.13123 122.15354l0 0c-4.439766 4.439766 -10.46138 6.933998 -16.740158 6.933998c-6.278778 0 -12.300392 -2.4942322 -16.740158 -6.933998" fill-rule="evenodd"/><path fill="#000000" fill-opacity="0.0" d="m144.74016 122.15354l0 0c-4.4397736 4.439766 -10.46138 6.933998 -16.740158 6.933998c-6.278778 0 -12.300392 -2.4942322 -16.740158 -6.933998l16.740158 -16.740158z" fill-rule="evenodd"/><path fill="#000000" fill-opacity="0.0" d="m144.74016 122.15354l0 0c-4.4397736 4.439766 -10.46138 6.933998 -16.740158 6.933998c-6.278778 0 -12.300392 -2.4942322 -16.740158 -6.933998" fill-rule="evenodd"/><path stroke="#ffffff" stroke-width="12.0" stroke-linejoin="round" stroke-linecap="butt" d="m144.74016 122.15354l0 0c-4.4397736 4.439766 -10.46138 6.933998 -16.740158 6.933998c-6.278778 0 -12.300392 -2.4942322 -16.740158 -6.933998" fill-rule="evenodd"/><path fill="#000000" fill-opacity="0.0" d="m187.34908 122.15354l0 0c-4.4397583 4.439766 -10.46138 6.933998 -16.740158 6.933998c-6.278763 0 -12.3003845 -2.4942322 -16.740158 -6.933998l16.740158 -16.740158z" fill-rule="evenodd"/><path fill="#000000" fill-opacity="0.0" d="m187.34908 122.15354l0 0c-4.4397583 4.439766 -10.46138 6.933998 -16.740158 6.933998c-6.278763 0 -12.3003845 -2.4942322 -16.740158 -6.933998" fill-rule="evenodd"/><path stroke="#ffffff" stroke-width="12.0" stroke-linejoin="round" stroke-linecap="butt" d="m187.34908 122.15354l0 0c-4.4397583 4.439766 -10.46138 6.933998 -16.740158 6.933998c-6.278763 0 -12.3003845 -2.4942322 -16.740158 -6.933998" fill-rule="evenodd"/><path fill="#000000" fill-opacity="0.0" d="m228.24934 122.15354l0 0c-4.4397583 4.439766 -10.46138 6.933998 -16.740158 6.933998c-6.278778 0 -12.3003845 -2.4942322 -16.740158 -6.933998l16.740158 -16.740158z" fill-rule="evenodd"/><path fill="#000000" fill-opacity="0.0" d="m228.24934 122.15354l0 0c-4.4397583 4.439766 -10.46138 6.933998 -16.740158 6.933998c-6.278778 0 -12.3003845 -2.4942322 -16.740158 -6.933998" fill-rule="evenodd"/><path stroke="#ffffff" stroke-width="12.0" stroke-linejoin="round" stroke-linecap="butt" d="m228.24934 122.15354l0 0c-4.4397583 4.439766 -10.46138 6.933998 -16.740158 6.933998c-6.278778 0 -12.3003845 -2.4942322 -16.740158 -6.933998" fill-rule="evenodd"/><path fill="#000000" fill-opacity="0.0" d="m81.32546 127.36352l0 0c-4.439766 -4.439766 -10.46138 -6.933998 -16.740158 -6.933998c-6.278778 0 -12.300396 2.4942322 -16.740158 6.933998l16.740158 16.74015z" fill-rule="evenodd"/><path fill="#000000" fill-opacity="0.0" d="m81.32546 127.36352l0 0c-4.439766 -4.439766 -10.46138 -6.933998 -16.740158 -6.933998c-6.278778 0 -12.300396 2.4942322 -16.740158 6.933998" fill-rule="evenodd"/><path stroke="#ffffff" stroke-width="12.0" stroke-linejoin="round" stroke-linecap="butt" d="m81.32546 127.36352l0 0c-4.439766 -4.439766 -10.46138 -6.933998 -16.740158 -6.933998c-6.278778 0 -12.300396 2.4942322 -16.740158 6.933998" fill-rule="evenodd"/><path fill="#000000" fill-opacity="0.0" d="m123.96326 127.98819l0 0c-4.439766 -4.439766 -10.46138 -6.933998 -16.740158 -6.933998c-6.278778 0 -12.300392 2.4942322 -16.740158 6.933998l16.740158 16.740158z" fill-rule="evenodd"/><path fill="#000000" fill-opacity="0.0" d="m123.96326 127.98819l0 0c-4.439766 -4.439766 -10.46138 -6.933998 -16.740158 -6.933998c-6.278778 0 -12.300392 2.4942322 -16.740158 6.933998" fill-rule="evenodd"/><path stroke="#ffffff" stroke-width="12.0" stroke-linejoin="round" stroke-linecap="butt" d="m123.96326 127.98819l0 0c-4.439766 -4.439766 -10.46138 -6.933998 -16.740158 -6.933998c-6.278778 0 -12.300392 2.4942322 -16.740158 6.933998" fill-rule="evenodd"/><path fill="#000000" fill-opacity="0.0" d="m167.09186 128.61285l0 0c-4.4397583 -4.4397583 -10.46138 -6.9339905 -16.740158 -6.9339905c-6.278778 0 -12.3003845 2.4942322 -16.740158 6.9339905l16.740158 16.740158z" fill-rule="evenodd"/><path fill="#000000" fill-opacity="0.0" d="m167.09186 128.61285l0 0c-4.4397583 -4.4397583 -10.46138 -6.9339905 -16.740158 -6.9339905c-6.278778 0 -12.3003845 2.4942322 -16.740158 6.9339905" fill-rule="evenodd"/><path stroke="#ffffff" stroke-width="12.0" stroke-linejoin="round" stroke-linecap="butt" d="m167.09186 128.61285l0 0c-4.4397583 -4.4397583 -10.46138 -6.9339905 -16.740158 -6.9339905c-6.278778 0 -12.3003845 2.4942322 -16.740158 6.9339905" fill-rule="evenodd"/><path fill="#000000" fill-opacity="0.0" d="m207.26247 127.36352l0 0c-4.4397583 -4.439766 -10.46138 -6.933998 -16.740158 -6.933998c-6.278778 0 -12.3003845 2.4942322 -16.740158 6.933998l16.740158 16.74015z" fill-rule="evenodd"/><path fill="#000000" fill-opacity="0.0" d="m207.26247 127.36352l0 0c-4.4397583 -4.439766 -10.46138 -6.933998 -16.740158 -6.933998c-6.278778 0 -12.3003845 2.4942322 -16.740158 6.933998" fill-rule="evenodd"/><path stroke="#ffffff" stroke-width="12.0" stroke-linejoin="round" stroke-linecap="butt" d="m207.26247 127.36352l0 0c-4.4397583 -4.439766 -10.46138 -6.933998 -16.740158 -6.933998c-6.278778 0 -12.3003845 2.4942322 -16.740158 6.933998" fill-rule="evenodd"/><path fill="#ffffff" d="m208.08023 139.3187l0 0c0.09043884 -0.35720825 0.45283508 -0.5715637 0.809433 -0.47879028l2.5826416 0.6719055l0 0c0.17124939 0.044555664 0.3182373 0.15542603 0.4086151 0.30821228c0.09037781 0.15280151 0.116744995 0.3350067 0.07331848 0.506546l-7.1685486 28.31276c-0.09043884 0.357193 -0.45283508 0.5715637 -0.809433 0.47879028l-2.5826569 -0.6719208c-0.3565979 -0.09277344 -0.57237244 -0.45755005 -0.4819336 -0.81474304z" fill-rule="evenodd"/><path stroke="#ffffff" stroke-width="1.0" stroke-linejoin="round" stroke-linecap="butt" d="m208.08023 139.3187l0 0c0.09043884 -0.35720825 0.45283508 -0.5715637 0.809433 -0.47879028l2.5826416 0.6719055l0 0c0.17124939 0.044555664 0.3182373 0.15542603 0.4086151 0.30821228c0.09037781 0.15280151 0.116744995 0.3350067 0.07331848 0.506546l-7.1685486 28.31276c-0.09043884 0.357193 -0.45283508 0.5715637 -0.809433 0.47879028l-2.5826569 -0.6719208c-0.3565979 -0.09277344 -0.57237244 -0.45755005 -0.4819336 -0.81474304z" fill-rule="evenodd"/><path fill="#ffffff" d="m126.25197 74.04463l0 0c0 -0.32180786 0.26087952 -0.5826874 0.5826874 -0.5826874l2.3306885 0l0 0c0.15454102 0 0.30274963 0.06138611 0.41201782 0.17066193c0.10928345 0.10927582 0.17066956 0.25748444 0.17066956 0.41202545l0 17.70076c0 0.3218155 -0.26087952 0.582695 -0.5826874 0.582695l-2.3306885 0c-0.32180786 0 -0.5826874 -0.26087952 -0.5826874 -0.582695z" fill-rule="evenodd"/><path stroke="#ffffff" stroke-width="1.0" stroke-linejoin="round" stroke-linecap="butt" d="m126.25197 74.04463l0 0c0 -0.32180786 0.26087952 -0.5826874 0.5826874 -0.5826874l2.3306885 0l0 0c0.15454102 0 0.30274963 0.06138611 0.41201782 0.17066193c0.10928345 0.10927582 0.17066956 0.25748444 0.17066956 0.41202545l0 17.70076c0 0.3218155 -0.26087952 0.582695 -0.5826874 0.582695l-2.3306885 0c-0.32180786 0 -0.5826874 -0.26087952 -0.5826874 -0.582695z" fill-rule="evenodd"/><path fill="#ffffff" d="m95.20054 73.870674l0 0c0.22613525 -0.22613525 0.59278107 -0.22613525 0.8189163 0l1.6377792 1.6377792l0 0c0.1085968 0.1085968 0.16960144 0.25588226 0.16960144 0.40946198c0 0.15357208 -0.06100464 0.30085754 -0.16960144 0.40945435l-12.535416 12.535416c-0.22614288 0.22613525 -0.59278107 0.22613525 -0.8189163 0l-1.6377792 -1.6377792c-0.22613525 -0.22613525 -0.22613525 -0.59277344 0 -0.8189087z" fill-rule="evenodd"/><path stroke="#ffffff" stroke-width="1.0" stroke-linejoin="round" stroke-linecap="butt" d="m95.20054 73.870674l0 0c0.22613525 -0.22613525 0.59278107 -0.22613525 0.8189163 0l1.6377792 1.6377792l0 0c0.1085968 0.1085968 0.16960144 0.25588226 0.16960144 0.40946198c0 0.15357208 -0.06100464 0.30085754 -0.16960144 0.40945435l-12.535416 12.535416c-0.22614288 0.22613525 -0.59278107 0.22613525 -0.8189163 0l-1.6377792 -1.6377792c-0.22613525 -0.22613525 -0.22613525 -0.59277344 0 -0.8189087z" fill-rule="evenodd"/><path fill="#ffffff" d="m160.8016 73.870674l0 0c-0.22613525 -0.22613525 -0.59277344 -0.22613525 -0.8189087 0l-1.6377869 1.6377792l0 0c-0.1085968 0.1085968 -0.16960144 0.25588226 -0.16960144 0.40946198c0 0.15357208 0.06100464 0.30085754 0.16960144 0.40945435l12.535416 12.535416c0.22613525 0.22613525 0.5927887 0.22613525 0.81892395 0l1.6377716 -1.6377792c0.22613525 -0.22613525 0.22613525 -0.59277344 0 -0.8189087z" fill-rule="evenodd"/><path stroke="#ffffff" stroke-width="1.0" stroke-linejoin="round" stroke-linecap="butt" d="m160.8016 73.870674l0 0c-0.22613525 -0.22613525 -0.59277344 -0.22613525 -0.8189087 0l-1.6377869 1.6377792l0 0c-0.1085968 0.1085968 -0.16960144 0.25588226 -0.16960144 0.40946198c0 0.15357208 0.06100464 0.30085754 0.16960144 0.40945435l12.535416 12.535416c0.22613525 0.22613525 0.5927887 0.22613525 0.81892395 0l1.6377716 -1.6377792c0.22613525 -0.22613525 0.22613525 -0.59277344 0 -0.8189087z" fill-rule="evenodd"/></g></svg>