<svg version="1.1" viewBox="0.0 0.0 256.0 256.0" fill="none" stroke="none" stroke-linecap="square" stroke-miterlimit="10" xmlns:xlink="http://www.w3.org/1999/xlink" xmlns="http://www.w3.org/2000/svg"><clipPath id="p.0"><path d="m0 0l256.0 0l0 256.0l-256.0 0l0 -256.0z" clip-rule="nonzero"/></clipPath><g clip-path="url(#p.0)"><path fill="#000000" fill-opacity="0.0" d="m0 0l256.0 0l0 256.0l-256.0 0z" fill-rule="evenodd"/><path fill="#d991b3" d="m19.811024 128.0l0 0c0 -59.75112 48.437855 -108.18898 108.18898 -108.18898l0 0c28.693497 0 56.211792 11.398449 76.50116 31.687817c20.289368 20.289368 31.68782 47.807655 31.68782 76.50116l0 0c0 59.75113 -48.43785 108.18898 -108.18898 108.18898l0 0c-59.75112 0 -108.18898 -48.43785 -108.18898 -108.18898zm6.7769566 0l0 0c0 56.008316 45.40371 101.41202 101.41202 101.41202c56.008316 0 101.41202 -45.4037 101.41202 -101.41202l0 0c0 -56.00831 -45.4037 -101.41202 -101.41202 -101.41202l0 0c-56.00831 0 -101.41202 45.40371 -101.41202 101.41202z" fill-rule="evenodd"/><path stroke="#d991b3" stroke-width="1.0" stroke-linejoin="round" stroke-linecap="butt" d="m19.811024 128.0l0 0c0 -59.75112 48.437855 -108.18898 108.18898 -108.18898l0 0c28.693497 0 56.211792 11.398449 76.50116 31.687817c20.289368 20.289368 31.68782 47.807655 31.68782 76.50116l0 0c0 59.75113 -48.43785 108.18898 -108.18898 108.18898l0 0c-59.75112 0 -108.18898 -48.43785 -108.18898 -108.18898zm6.7769566 0l0 0c0 56.008316 45.40371 101.41202 101.41202 101.41202c56.008316 0 101.41202 -45.4037 101.41202 -101.41202l0 0c0 -56.00831 -45.4037 -101.41202 -101.41202 -101.41202l0 0c-56.00831 0 -101.41202 45.40371 -101.41202 101.41202z" fill-rule="evenodd"/><path fill="#d991b3" d="m28.047245 128.0l0 0c0 -55.271965 44.75037 -100.07874 99.95276 -100.07874l0 0c26.509125 0 51.932495 10.543982 70.67728 29.312384c18.744766 18.76841 29.275482 44.223824 29.275482 70.76636l0 0c0 55.271957 -44.75038 100.078735 -99.95276 100.078735l0 0c-55.202385 0 -99.95276 -44.806778 -99.95276 -100.078735z" fill-rule="evenodd"/><path stroke="#ffffff" stroke-width="2.0" stroke-linejoin="round" stroke-linecap="butt" d="m28.047245 128.0l0 0c0 -55.271965 44.75037 -100.07874 99.95276 -100.07874l0 0c26.509125 0 51.932495 10.543982 70.67728 29.312384c18.744766 18.76841 29.275482 44.223824 29.275482 70.76636l0 0c0 55.271957 -44.75038 100.078735 -99.95276 100.078735l0 0c-55.202385 0 -99.95276 -44.806778 -99.95276 -100.078735z" fill-rule="evenodd"/><path fill="#000000" fill-opacity="0.0" d="m128.0 28.834646l0 199.2441" fill-rule="evenodd"/><path stroke="#ffffff" stroke-width="2.0" stroke-linejoin="round" stroke-linecap="butt" d="m128.0 28.834646l0 199.2441" fill-rule="evenodd"/><path fill="#000000" fill-opacity="0.0" d="m28.393702 128.0l199.55905 0" fill-rule="evenodd"/><path stroke="#ffffff" stroke-width="2.0" stroke-linejoin="round" stroke-linecap="butt" d="m28.393702 128.0l199.55905 0" fill-rule="evenodd"/><path fill="#000000" fill-opacity="0.0" d="m57.700893 57.695488l140.97638 141.07086" fill-rule="evenodd"/><path stroke="#ffffff" stroke-width="2.0" stroke-linejoin="round" stroke-linecap="butt" d="m57.700893 57.695488l140.97638 141.07086" fill-rule="evenodd"/><path fill="#000000" fill-opacity="0.0" d="m57.322727 198.76636l141.35434 -141.5433" fill-rule="evenodd"/><path stroke="#ffffff" stroke-width="2.0" stroke-linejoin="round" stroke-linecap="butt" d="m57.322727 198.76636l141.35434 -141.5433" fill-rule="evenodd"/><path fill="#ffffff" d="m74.05787 62.78162l0 0c-0.51895905 -0.58563614 -0.46508026 -1.4812851 0.12033081 -2.000492l13.754051 -12.198528c0.2811203 -0.24933243 0.6497345 -0.37673187 1.0247345 -0.35417557c0.37500763 0.022556305 0.7256851 0.19322586 0.9748993 0.4744568l3.7584915 4.2414284c0.51895905 0.58563614 0.46508026 1.4812889 -0.12033081 2.000496l-13.754051 12.198528l0 0c-0.5854111 0.5192032 -1.4806747 0.46535492 -1.9996338 -0.120285034z" fill-rule="evenodd"/><path stroke="#ffffff" stroke-width="1.0" stroke-linejoin="round" stroke-linecap="butt" d="m74.05787 62.78162l0 0c-0.51895905 -0.58563614 -0.46508026 -1.4812851 0.12033081 -2.000492l13.754051 -12.198528c0.2811203 -0.24933243 0.6497345 -0.37673187 1.0247345 -0.35417557c0.37500763 0.022556305 0.7256851 0.19322586 0.9748993 0.4744568l3.7584915 4.2414284c0.51895905 0.58563614 0.46508026 1.4812889 -0.12033081 2.000496l-13.754051 12.198528l0 0c-0.5854111 0.5192032 -1.4806747 0.46535492 -1.9996338 -0.120285034z" fill-rule="evenodd"/><path fill="#ffffff" d="m41.832146 116.19107l0 0c-0.51895523 -0.58563995 -0.46508026 -1.4812851 0.120334625 -2.000496l13.754044 -12.198524c0.28112793 -0.24933624 0.6497383 -0.37673187 1.0247421 -0.35417938c0.3750038 0.02256012 0.7256851 0.19322968 0.9748955 0.4744568l3.7584953 4.241432c0.5189514 0.5856323 0.46507645 1.4812851 -0.120334625 2.000496l-13.754047 12.198524l0 0c-0.5854111 0.5192032 -1.4806824 0.46535492 -1.9996338 -0.120285034z" fill-rule="evenodd"/><path stroke="#ffffff" stroke-width="1.0" stroke-linejoin="round" stroke-linecap="butt" d="m41.832146 116.19107l0 0c-0.51895523 -0.58563995 -0.46508026 -1.4812851 0.120334625 -2.000496l13.754044 -12.198524c0.28112793 -0.24933624 0.6497383 -0.37673187 1.0247421 -0.35417938c0.3750038 0.02256012 0.7256851 0.19322968 0.9748955 0.4744568l3.7584953 4.241432c0.5189514 0.5856323 0.46507645 1.4812851 -0.120334625 2.000496l-13.754047 12.198524l0 0c-0.5854111 0.5192032 -1.4806824 0.46535492 -1.9996338 -0.120285034z" fill-rule="evenodd"/><path fill="#ffffff" d="m52.54606 183.12021l0 0c-0.51895523 -0.5856476 -0.46508026 -1.4812927 0.120334625 -2.0005035l13.75404 -12.198517c0.28112793 -0.24934387 0.6497421 -0.3767395 1.0247421 -0.354187c0.37500763 0.022567749 0.7256851 0.1932373 0.9748993 0.4744568l3.7584915 4.24144c0.5189514 0.5856323 0.46508026 1.4812775 -0.12033081 2.0004883l-13.754047 12.198532l0 0c-0.5854149 0.51919556 -1.4806824 0.4653473 -1.9996376 -0.120285034z" fill-rule="evenodd"/><path stroke="#ffffff" stroke-width="1.0" stroke-linejoin="round" stroke-linecap="butt" d="m52.54606 183.12021l0 0c-0.51895523 -0.5856476 -0.46508026 -1.4812927 0.120334625 -2.0005035l13.75404 -12.198517c0.28112793 -0.24934387 0.6497421 -0.3767395 1.0247421 -0.354187c0.37500763 0.022567749 0.7256851 0.1932373 0.9748993 0.4744568l3.7584915 4.24144c0.5189514 0.5856323 0.46508026 1.4812775 -0.12033081 2.0004883l-13.754047 12.198532l0 0c-0.5854149 0.51919556 -1.4806824 0.4653473 -1.9996376 -0.120285034z" fill-rule="evenodd"/><path fill="#ffffff" d="m103.25209 213.90498l0 0c-0.5189514 -0.5856323 -0.46507263 -1.4812927 0.12033844 -2.0005035l13.754044 -12.198517c0.28112793 -0.24932861 0.6497345 -0.3767395 1.0247421 -0.35417175c0.375 0.02255249 0.7256851 0.19322205 0.97489166 0.4744568l3.7584991 4.2414246c0.5189514 0.5856323 0.46508026 1.4812775 -0.12033844 2.0004883l-13.754044 12.198532l0 0c-0.5854111 0.5192108 -1.4806824 0.4653473 -1.9996338 -0.120285034z" fill-rule="evenodd"/><path stroke="#ffffff" stroke-width="1.0" stroke-linejoin="round" stroke-linecap="butt" d="m103.25209 213.90498l0 0c-0.5189514 -0.5856323 -0.46507263 -1.4812927 0.12033844 -2.0005035l13.754044 -12.198517c0.28112793 -0.24932861 0.6497345 -0.3767395 1.0247421 -0.35417175c0.375 0.02255249 0.7256851 0.19322205 0.97489166 0.4744568l3.7584991 4.2414246c0.5189514 0.5856323 0.46508026 1.4812775 -0.12033844 2.0004883l-13.754044 12.198532l0 0c-0.5854111 0.5192108 -1.4806824 0.4653473 -1.9996338 -0.120285034z" fill-rule="evenodd"/><path fill="#ffffff" d="m138.63005 213.90498l0 0c-0.5189514 -0.5856323 -0.4650879 -1.4812927 0.12033081 -2.0005035l13.754044 -12.198517c0.28112793 -0.24932861 0.6497345 -0.3767395 1.0247345 -0.35417175c0.37501526 0.02255249 0.72569275 0.19322205 0.9748993 0.4744568l3.7584991 4.2414246c0.5189514 0.5856323 0.46507263 1.4812775 -0.12033081 2.0004883l-13.754044 12.198532l0 0c-0.5854187 0.5192108 -1.4806824 0.4653473 -1.999649 -0.120285034z" fill-rule="evenodd"/><path stroke="#ffffff" stroke-width="1.0" stroke-linejoin="round" stroke-linecap="butt" d="m138.63005 213.90498l0 0c-0.5189514 -0.5856323 -0.4650879 -1.4812927 0.12033081 -2.0005035l13.754044 -12.198517c0.28112793 -0.24932861 0.6497345 -0.3767395 1.0247345 -0.35417175c0.37501526 0.02255249 0.72569275 0.19322205 0.9748993 0.4744568l3.7584991 4.2414246c0.5189514 0.5856323 0.46507263 1.4812775 -0.12033081 2.0004883l-13.754044 12.198532l0 0c-0.5854187 0.5192108 -1.4806824 0.4653473 -1.999649 -0.120285034z" fill-rule="evenodd"/><path fill="#ffffff" d="m185.72978 172.52965l0 0c-0.5189514 -0.5856323 -0.46507263 -1.4812775 0.12033081 -2.0004883l13.754044 -12.198532c0.28112793 -0.24932861 0.64974976 -0.37672424 1.0247498 -0.35417175c0.375 0.02255249 0.7256775 0.19322205 0.9748993 0.4744568l3.758484 4.2414246c0.5189514 0.5856323 0.4650879 1.4812927 -0.12033081 2.0005035l-13.754044 12.198517l0 0c-0.5854187 0.5192108 -1.4806824 0.46536255 -1.9996338 -0.120269775z" fill-rule="evenodd"/><path stroke="#ffffff" stroke-width="1.0" stroke-linejoin="round" stroke-linecap="butt" d="m185.72978 172.52965l0 0c-0.5189514 -0.5856323 -0.46507263 -1.4812775 0.12033081 -2.0004883l13.754044 -12.198532c0.28112793 -0.24932861 0.64974976 -0.37672424 1.0247498 -0.35417175c0.375 0.02255249 0.7256775 0.19322205 0.9748993 0.4744568l3.758484 4.2414246c0.5189514 0.5856323 0.4650879 1.4812927 -0.12033081 2.0005035l-13.754044 12.198517l0 0c-0.5854187 0.5192108 -1.4806824 0.46536255 -1.9996338 -0.120269775z" fill-rule="evenodd"/><path fill="#ffffff" d="m185.72978 93.30656l0 0c-0.5189514 -0.58563995 -0.46507263 -1.4812927 0.12033081 -2.000496l13.754044 -12.198524c0.28112793 -0.24933624 0.64974976 -0.37673187 1.0247498 -0.35417938c0.375 0.02256012 0.7256775 0.19322968 0.9748993 0.4744568l3.758484 4.241432c0.5189514 0.5856323 0.4650879 1.4812851 -0.12033081 2.000496l-13.754044 12.198524l0 0c-0.5854187 0.5192032 -1.4806824 0.46535492 -1.9996338 -0.120285034z" fill-rule="evenodd"/><path stroke="#ffffff" stroke-width="1.0" stroke-linejoin="round" stroke-linecap="butt" d="m185.72978 93.30656l0 0c-0.5189514 -0.58563995 -0.46507263 -1.4812927 0.12033081 -2.000496l13.754044 -12.198524c0.28112793 -0.24933624 0.64974976 -0.37673187 1.0247498 -0.35417938c0.375 0.02256012 0.7256775 0.19322968 0.9748993 0.4744568l3.758484 4.241432c0.5189514 0.5856323 0.4650879 1.4812851 -0.12033081 2.000496l-13.754044 12.198524l0 0c-0.5854187 0.5192032 -1.4806824 0.46535492 -1.9996338 -0.120285034z" fill-rule="evenodd"/><path fill="#ffffff" d="m136.15236 59.401043l0 0c-0.5189514 -0.58563614 -0.4650879 -1.4812889 0.12033081 -2.000492l13.754044 -12.198528c0.28112793 -0.24933243 0.6497345 -0.37673187 1.0247498 -0.35417557c0.375 0.022556305 0.7256775 0.19322586 0.97488403 0.4744568l3.7584991 4.2414284c0.5189514 0.58563614 0.46507263 1.4812889 -0.12033081 2.000496l-13.754044 12.198524l0 0c-0.5854187 0.519207 -1.4806824 0.46535873 -1.999649 -0.12028122z" fill-rule="evenodd"/><path stroke="#ffffff" stroke-width="1.0" stroke-linejoin="round" stroke-linecap="butt" d="m136.15236 59.401043l0 0c-0.5189514 -0.58563614 -0.4650879 -1.4812889 0.12033081 -2.000492l13.754044 -12.198528c0.28112793 -0.24933243 0.6497345 -0.37673187 1.0247498 -0.35417557c0.375 0.022556305 0.7256775 0.19322586 0.97488403 0.4744568l3.7584991 4.2414284c0.5189514 0.58563614 0.46507263 1.4812889 -0.12033081 2.000496l-13.754044 12.198524l0 0c-0.5854187 0.519207 -1.4806824 0.46535873 -1.999649 -0.12028122z" fill-rule="evenodd"/><path fill="#ffffff" d="m137.69029 84.43307l0 0c0 -5.6446075 4.8155823 -10.220467 10.755905 -10.220467l0 0c2.8526459 0 5.58844 1.0767975 7.6055756 2.9935074c2.0171204 1.9167099 3.1503296 4.516327 3.1503296 7.226959l0 0c0 5.644615 -4.8155823 10.220474 -10.755905 10.220474l0 0c-5.940323 0 -10.755905 -4.575859 -10.755905 -10.220474z" fill-rule="evenodd"/><path stroke="#ffffff" stroke-width="1.0" stroke-linejoin="round" stroke-linecap="butt" d="m137.69029 84.43307l0 0c0 -5.6446075 4.8155823 -10.220467 10.755905 -10.220467l0 0c2.8526459 0 5.58844 1.0767975 7.6055756 2.9935074c2.0171204 1.9167099 3.1503296 4.516327 3.1503296 7.226959l0 0c0 5.644615 -4.8155823 10.220474 -10.755905 10.220474l0 0c-5.940323 0 -10.755905 -4.575859 -10.755905 -10.220474z" fill-rule="evenodd"/><path fill="#ffffff" d="m100.55905 57.863518l0 0c0 -5.6446114 4.81559 -10.220474 10.755913 -10.220474l0 0c2.8526382 0 5.5884476 1.0767975 7.605568 2.9935074c2.017128 1.9167099 3.1503372 4.516327 3.1503372 7.226967l0 0c0 5.6446114 -4.81559 10.220474 -10.755905 10.220474l0 0c-5.940323 0 -10.755913 -4.575863 -10.755913 -10.220474z" fill-rule="evenodd"/><path stroke="#ffffff" stroke-width="1.0" stroke-linejoin="round" stroke-linecap="butt" d="m100.55905 57.863518l0 0c0 -5.6446114 4.81559 -10.220474 10.755913 -10.220474l0 0c2.8526382 0 5.5884476 1.0767975 7.605568 2.9935074c2.017128 1.9167099 3.1503372 4.516327 3.1503372 7.226967l0 0c0 5.6446114 -4.81559 10.220474 -10.755905 10.220474l0 0c-5.940323 0 -10.755913 -4.575863 -10.755913 -10.220474z" fill-rule="evenodd"/><path fill="#ffffff" d="m73.11811 111.62467l0 0c0 -5.6446075 4.8155823 -10.220474 10.755905 -10.220474l0 0c2.8526459 0 5.5884476 1.0767975 7.6055756 2.9935074c2.0171204 1.9167099 3.1503296 4.516327 3.1503296 7.226967l0 0c0 5.6446075 -4.8155823 10.220474 -10.755905 10.220474l0 0c-5.940323 0 -10.755905 -4.5758667 -10.755905 -10.220474z" fill-rule="evenodd"/><path stroke="#ffffff" stroke-width="1.0" stroke-linejoin="round" stroke-linecap="butt" d="m73.11811 111.62467l0 0c0 -5.6446075 4.8155823 -10.220474 10.755905 -10.220474l0 0c2.8526459 0 5.5884476 1.0767975 7.6055756 2.9935074c2.0171204 1.9167099 3.1503296 4.516327 3.1503296 7.226967l0 0c0 5.6446075 -4.8155823 10.220474 -10.755905 10.220474l0 0c-5.940323 0 -10.755905 -4.5758667 -10.755905 -10.220474z" fill-rule="evenodd"/><path fill="#ffffff" d="m40.892387 150.0105l0 0c0 -5.6446075 4.8155823 -10.220474 10.755905 -10.220474l0 0c2.8526459 0 5.5884514 1.0767975 7.6055756 2.993515c2.0171242 1.9167023 3.1503296 4.516327 3.1503296 7.226959l0 0c0 5.6446075 -4.8155823 10.220474 -10.755905 10.220474l0 0c-5.940323 0 -10.755905 -4.5758667 -10.755905 -10.220474z" fill-rule="evenodd"/><path stroke="#ffffff" stroke-width="1.0" stroke-linejoin="round" stroke-linecap="butt" d="m40.892387 150.0105l0 0c0 -5.6446075 4.8155823 -10.220474 10.755905 -10.220474l0 0c2.8526459 0 5.5884514 1.0767975 7.6055756 2.993515c2.0171242 1.9167023 3.1503296 4.516327 3.1503296 7.226959l0 0c0 5.6446075 -4.8155823 10.220474 -10.755905 10.220474l0 0c-5.940323 0 -10.755905 -4.5758667 -10.755905 -10.220474z" fill-rule="evenodd"/><path fill="#ffffff" d="m79.04724 144.37534l0 0c0 -5.644623 4.8155823 -10.220474 10.755905 -10.220474l0 0c2.8526459 0 5.588455 1.0767975 7.6055756 2.9934998c2.017128 1.9167175 3.1503296 4.516327 3.1503296 7.2269745l0 0c0 5.6446075 -4.8155823 10.220459 -10.755905 10.220459l0 0c-5.940323 0 -10.755905 -4.5758514 -10.755905 -10.220459z" fill-rule="evenodd"/><path stroke="#ffffff" stroke-width="1.0" stroke-linejoin="round" stroke-linecap="butt" d="m79.04724 144.37534l0 0c0 -5.644623 4.8155823 -10.220474 10.755905 -10.220474l0 0c2.8526459 0 5.588455 1.0767975 7.6055756 2.9934998c2.017128 1.9167175 3.1503296 4.516327 3.1503296 7.2269745l0 0c0 5.6446075 -4.8155823 10.220459 -10.755905 10.220459l0 0c-5.940323 0 -10.755905 -4.5758514 -10.755905 -10.220459z" fill-rule="evenodd"/><path fill="#ffffff" d="m135.2126 171.56693l0 0c0 -5.6446075 4.8155823 -10.220474 10.755905 -10.220474l0 0c2.8526459 0 5.588455 1.0767975 7.6055756 2.993515c2.0171204 1.9167023 3.1503296 4.516327 3.1503296 7.226959l0 0c0 5.6446075 -4.8155823 10.220474 -10.755905 10.220474l0 0c-5.940323 0 -10.755905 -4.5758667 -10.755905 -10.220474z" fill-rule="evenodd"/><path stroke="#ffffff" stroke-width="1.0" stroke-linejoin="round" stroke-linecap="butt" d="m135.2126 171.56693l0 0c0 -5.6446075 4.8155823 -10.220474 10.755905 -10.220474l0 0c2.8526459 0 5.588455 1.0767975 7.6055756 2.993515c2.0171204 1.9167023 3.1503296 4.516327 3.1503296 7.226959l0 0c0 5.6446075 -4.8155823 10.220474 -10.755905 10.220474l0 0c-5.940323 0 -10.755905 -4.5758667 -10.755905 -10.220474z" fill-rule="evenodd"/><path fill="#ffffff" d="m102.31233 167.61154l0 0c0 -5.6446075 4.81559 -10.220459 10.755913 -10.220459l0 0c2.8526382 0 5.5884476 1.0767975 7.605568 2.9934998c2.017128 1.9167175 3.1503372 4.516327 3.1503372 7.226959l0 0c0 5.644623 -4.8155823 10.220474 -10.755905 10.220474l0 0c-5.940323 0 -10.755913 -4.5758514 -10.755913 -10.220474z" fill-rule="evenodd"/><path stroke="#ffffff" stroke-width="1.0" stroke-linejoin="round" stroke-linecap="butt" d="m102.31233 167.61154l0 0c0 -5.6446075 4.81559 -10.220459 10.755913 -10.220459l0 0c2.8526382 0 5.5884476 1.0767975 7.605568 2.9934998c2.017128 1.9167175 3.1503372 4.516327 3.1503372 7.226959l0 0c0 5.644623 -4.8155823 10.220474 -10.755905 10.220474l0 0c-5.940323 0 -10.755913 -4.5758514 -10.755913 -10.220474z" fill-rule="evenodd"/><path fill="#ffffff" d="m163.27821 147.17061l0 0c0 -5.644623 4.8155823 -10.220474 10.755905 -10.220474l0 0c2.8526459 0 5.588455 1.0767975 7.6055756 2.9934998c2.0171204 1.9167175 3.1503296 4.516327 3.1503296 7.2269745l0 0c0 5.6446075 -4.8155823 10.220474 -10.755905 10.220474l0 0c-5.940323 0 -10.755905 -4.5758667 -10.755905 -10.220474z" fill-rule="evenodd"/><path stroke="#ffffff" stroke-width="1.0" stroke-linejoin="round" stroke-linecap="butt" d="m163.27821 147.17061l0 0c0 -5.644623 4.8155823 -10.220474 10.755905 -10.220474l0 0c2.8526459 0 5.588455 1.0767975 7.6055756 2.9934998c2.0171204 1.9167175 3.1503296 4.516327 3.1503296 7.2269745l0 0c0 5.6446075 -4.8155823 10.220474 -10.755905 10.220474l0 0c-5.940323 0 -10.755905 -4.5758667 -10.755905 -10.220474z" fill-rule="evenodd"/><path fill="#ffffff" d="m94.01661 78.72059l0 0c5.4619675 -3.1136627 12.590157 -0.9068146 15.921257 4.929138c3.331108 5.8359528 1.6036987 13.091057 -3.858261 16.20472l-2.8216095 -4.9433365c2.73098 -1.5568314 3.5077667 -5.3366623 1.734993 -8.44249c-1.7727737 -3.1058197 -5.42379 -4.3615265 -8.15477 -2.8046951z" fill-rule="evenodd"/><path stroke="#ffffff" stroke-width="1.0" stroke-linejoin="round" stroke-linecap="butt" d="m94.01661 78.72059l0 0c5.4619675 -3.1136627 12.590157 -0.9068146 15.921257 4.929138c3.331108 5.8359528 1.6036987 13.091057 -3.858261 16.20472l-2.8216095 -4.9433365c2.73098 -1.5568314 3.5077667 -5.3366623 1.734993 -8.44249c-1.7727737 -3.1058197 -5.42379 -4.3615265 -8.15477 -2.8046951z" fill-rule="evenodd"/><path fill="#ffffff" d="m162.83813 53.279648l0 0c5.46196 -3.1136703 12.590149 -0.9068222 15.921265 4.9291344c3.3311005 5.835949 1.6036835 13.091053 -3.8582764 16.204723l-2.8216095 -4.9433365c2.7309875 -1.5568314 3.5077667 -5.33667 1.7350006 -8.44249c-1.7727814 -3.1058235 -5.4237976 -4.3615303 -8.15477 -2.8046951z" fill-rule="evenodd"/><path stroke="#ffffff" stroke-width="1.0" stroke-linejoin="round" stroke-linecap="butt" d="m162.83813 53.279648l0 0c5.46196 -3.1136703 12.590149 -0.9068222 15.921265 4.9291344c3.3311005 5.835949 1.6036835 13.091053 -3.8582764 16.204723l-2.8216095 -4.9433365c2.7309875 -1.5568314 3.5077667 -5.33667 1.7350006 -8.44249c-1.7727814 -3.1058235 -5.4237976 -4.3615303 -8.15477 -2.8046951z" fill-rule="evenodd"/><path fill="#ffffff" d="m199.93 103.96206l0 0c5.461975 -3.1136627 12.590164 -0.9068146 15.921265 4.929138c3.3311005 5.8359528 1.6036987 13.091057 -3.8582764 16.20472l-2.8215942 -4.9433365c2.7309723 -1.5568314 3.5077667 -5.3366623 1.7349854 -8.44249c-1.7727661 -3.1058197 -5.4237823 -4.3615265 -8.15477 -2.8046951z" fill-rule="evenodd"/><path stroke="#ffffff" stroke-width="1.0" stroke-linejoin="round" stroke-linecap="butt" d="m199.93 103.96206l0 0c5.461975 -3.1136627 12.590164 -0.9068146 15.921265 4.929138c3.3311005 5.8359528 1.6036987 13.091057 -3.8582764 16.20472l-2.8215942 -4.9433365c2.7309723 -1.5568314 3.5077667 -5.3366623 1.7349854 -8.44249c-1.7727661 -3.1058197 -5.4237823 -4.3615265 -8.15477 -2.8046951z" fill-rule="evenodd"/><path fill="#ffffff" d="m163.27821 113.30446l0 0c0 -5.6446075 4.8155823 -10.220467 10.755905 -10.220467l0 0c2.8526459 0 5.588455 1.0767975 7.6055756 2.9935074c2.0171204 1.9167099 3.1503296 4.516327 3.1503296 7.226959l0 0c0 5.644615 -4.8155823 10.220474 -10.755905 10.220474l0 0c-5.940323 0 -10.755905 -4.575859 -10.755905 -10.220474z" fill-rule="evenodd"/><path stroke="#ffffff" stroke-width="1.0" stroke-linejoin="round" stroke-linecap="butt" d="m163.27821 113.30446l0 0c0 -5.6446075 4.8155823 -10.220467 10.755905 -10.220467l0 0c2.8526459 0 5.588455 1.0767975 7.6055756 2.9935074c2.0171204 1.9167099 3.1503296 4.516327 3.1503296 7.226959l0 0c0 5.644615 -4.8155823 10.220474 -10.755905 10.220474l0 0c-5.940323 0 -10.755905 -4.575859 -10.755905 -10.220474z" fill-rule="evenodd"/><path fill="#ffffff" d="m199.93 136.60248l0 0c5.461975 -3.1136627 12.590164 -0.9068146 15.921265 4.929138c3.3311005 5.8359528 1.6036987 13.091049 -3.8582764 16.204727l-2.8215942 -4.943344c2.7309723 -1.5568237 3.5077667 -5.3366547 1.7349854 -8.44249c-1.7727661 -3.1058197 -5.4237823 -4.3615265 -8.15477 -2.8046875z" fill-rule="evenodd"/><path stroke="#ffffff" stroke-width="1.0" stroke-linejoin="round" stroke-linecap="butt" d="m199.93 136.60248l0 0c5.461975 -3.1136627 12.590164 -0.9068146 15.921265 4.929138c3.3311005 5.8359528 1.6036987 13.091049 -3.8582764 16.204727l-2.8215942 -4.943344c2.7309723 -1.5568237 3.5077667 -5.3366547 1.7349854 -8.44249c-1.7727661 -3.1058197 -5.4237823 -4.3615265 -8.15477 -2.8046875z" fill-rule="evenodd"/><path fill="#ffffff" d="m80.36044 188.89381l0 0c5.4619675 -3.1136627 12.590157 -0.9068146 15.921257 4.929138c3.331108 5.8359528 1.6036987 13.091064 -3.8582687 16.204727l-2.8216019 -4.943344c2.73098 -1.5568237 3.5077667 -5.3366547 1.734993 -8.44249c-1.7727737 -3.1058197 -5.42379 -4.3615265 -8.154778 -2.8046875z" fill-rule="evenodd"/><path stroke="#ffffff" stroke-width="1.0" stroke-linejoin="round" stroke-linecap="butt" d="m80.36044 188.89381l0 0c5.4619675 -3.1136627 12.590157 -0.9068146 15.921257 4.929138c3.331108 5.8359528 1.6036987 13.091064 -3.8582687 16.204727l-2.8216019 -4.943344c2.73098 -1.5568237 3.5077667 -5.3366547 1.734993 -8.44249c-1.7727737 -3.1058197 -5.42379 -4.3615265 -8.154778 -2.8046875z" fill-rule="evenodd"/><path fill="#ffffff" d="m160.4943 188.89381l0 0c5.461975 -3.1136627 12.590164 -0.9068146 15.921265 4.929138c3.3311005 5.8359528 1.6036987 13.091064 -3.858261 16.204727l-2.8216095 -4.943344c2.7309875 -1.5568237 3.5077667 -5.3366547 1.7349854 -8.44249c-1.7727661 -3.1058197 -5.4237823 -4.3615265 -8.15477 -2.8046875z" fill-rule="evenodd"/><path stroke="#ffffff" stroke-width="1.0" stroke-linejoin="round" stroke-linecap="butt" d="m160.4943 188.89381l0 0c5.461975 -3.1136627 12.590164 -0.9068146 15.921265 4.929138c3.3311005 5.8359528 1.6036987 13.091064 -3.858261 16.204727l-2.8216095 -4.943344c2.7309875 -1.5568237 3.5077667 -5.3366547 1.7349854 -8.44249c-1.7727661 -3.1058197 -5.4237823 -4.3615265 -8.15477 -2.8046875z" fill-rule="evenodd"/><path fill="#ffffff" d="m53.000862 78.72059l0 0c5.4619637 -3.1136627 12.590157 -0.9068146 15.921257 4.929138c3.331108 5.8359528 1.6036987 13.091057 -3.8582687 16.20472l-2.8216019 -4.9433365c2.73098 -1.5568314 3.5077667 -5.3366623 1.734993 -8.44249c-1.7727737 -3.1058197 -5.42379 -4.3615265 -8.154774 -2.8046951z" fill-rule="evenodd"/><path stroke="#ffffff" stroke-width="1.0" stroke-linejoin="round" stroke-linecap="butt" d="m53.000862 78.72059l0 0c5.4619637 -3.1136627 12.590157 -0.9068146 15.921257 4.929138c3.331108 5.8359528 1.6036987 13.091057 -3.8582687 16.20472l-2.8216019 -4.9433365c2.73098 -1.5568314 3.5077667 -5.3366623 1.734993 -8.44249c-1.7727737 -3.1058197 -5.42379 -4.3615265 -8.154774 -2.8046951z" fill-rule="evenodd"/></g></svg>