<svg version="1.1" viewBox="0.0 0.0 24576.0 24576.0" fill="none" stroke="none" stroke-linecap="square" stroke-miterlimit="10" xmlns:xlink="http://www.w3.org/1999/xlink" xmlns="http://www.w3.org/2000/svg"><clipPath id="p.0"><path d="m0 0l24576.0 0l0 24576.0l-24576.0 0l0 -24576.0z" clip-rule="nonzero"/></clipPath><g clip-path="url(#p.0)"><path fill="#000000" fill-opacity="0.0" d="m0 0l24576.0 0l0 24576.0l-24576.0 0z" fill-rule="evenodd"/><path fill="#f2d5dd" d="m2704.2205 9486.41l0 0c0 -1230.6387 997.6299 -2228.2686 2228.2688 -2228.2686l14711.022 0c590.97266 0 1157.7422 234.76367 1575.623 652.645c417.88086 417.88135 652.64453 984.6499 652.64453 1575.6235l0 7766.549c0 1230.6387 -997.6289 2228.2695 -2228.2676 2228.2695l-14711.022 0c-1230.6389 0 -2228.2688 -997.63086 -2228.2688 -2228.2695z" fill-rule="evenodd"/><path stroke="#f2d5dd" stroke-width="1.0" stroke-linejoin="round" stroke-linecap="butt" d="m2704.2205 9486.41l0 0c0 -1230.6387 997.6299 -2228.2686 2228.2688 -2228.2686l14711.022 0c590.97266 0 1157.7422 234.76367 1575.623 652.645c417.88086 417.88135 652.64453 984.6499 652.64453 1575.6235l0 7766.549c0 1230.6387 -997.6289 2228.2695 -2228.2676 2228.2695l-14711.022 0c-1230.6389 0 -2228.2688 -997.63086 -2228.2688 -2228.2695z" fill-rule="evenodd"/><path fill="#ffffff" d="m8004.504 13369.685l0 0c0 -2413.501 1917.7861 -4370.0312 4283.496 -4370.0312l0 0c1136.0537 0 2225.5781 460.4131 3028.8887 1279.9531c803.3115 819.54004 1254.6074 1931.0742 1254.6074 3090.0781l0 0c0 2413.502 -1917.7861 4370.032 -4283.496 4370.032l0 0c-2365.71 0 -4283.496 -1956.5303 -4283.496 -4370.032zm1687.1836 0l0 0c0 1481.6963 1162.4082 2682.8486 2596.3125 2682.8486c1433.9043 0 2596.3125 -1201.1523 2596.3125 -2682.8486c0 -1481.6953 -1162.4082 -2682.8477 -2596.3125 -2682.8477l0 0c-1433.9043 0 -2596.3125 1201.1523 -2596.3125 2682.8477z" fill-rule="evenodd"/><path stroke="#000000" stroke-width="1.0" stroke-linejoin="round" stroke-linecap="butt" d="m8004.504 13369.685l0 0c0 -2413.501 1917.7861 -4370.0312 4283.496 -4370.0312l0 0c1136.0537 0 2225.5781 460.4131 3028.8887 1279.9531c803.3115 819.54004 1254.6074 1931.0742 1254.6074 3090.0781l0 0c0 2413.502 -1917.7861 4370.032 -4283.496 4370.032l0 0c-2365.71 0 -4283.496 -1956.5303 -4283.496 -4370.032zm1687.1836 0l0 0c0 1481.6963 1162.4082 2682.8486 2596.3125 2682.8486c1433.9043 0 2596.3125 -1201.1523 2596.3125 -2682.8486c0 -1481.6953 -1162.4082 -2682.8477 -2596.3125 -2682.8477l0 0c-1433.9043 0 -2596.3125 1201.1523 -2596.3125 2682.8477z" fill-rule="evenodd"/><path fill="#f2d5dd" d="m5011.518 6003.3804l1918.8223 0c89.80371 0 175.92871 35.674316 239.42969 99.17529c63.50049 63.50049 99.174805 149.62598 99.174805 239.4292l0 526.75c0 0.012207031 -0.009765625 0.021484375 -0.021484375 0.021484375l-2596.0098 -0.021484375l0 0c-0.012207031 0 -0.021972656 -0.009765625 -0.021972656 -0.021484375l0.021972656 -526.7285l0 0c0 -187.00586 151.59814 -338.6045 338.6045 -338.6045z" fill-rule="evenodd"/><path stroke="#f2d5dd" stroke-width="1.0" stroke-linejoin="round" stroke-linecap="butt" d="m5011.518 6003.3804l1918.8223 0c89.80371 0 175.92871 35.674316 239.42969 99.17529c63.50049 63.50049 99.174805 149.62598 99.174805 239.4292l0 526.75c0 0.012207031 -0.009765625 0.021484375 -0.021484375 0.021484375l-2596.0098 -0.021484375l0 0c-0.012207031 0 -0.021972656 -0.009765625 -0.021972656 -0.021484375l0.021972656 -526.7285l0 0c0 -187.00586 151.59814 -338.6045 338.6045 -338.6045z" fill-rule="evenodd"/><path fill="#f2d5dd" d="m9153.891 5094.7715l6268.2188 0c224.50684 0 439.81836 89.18506 598.56934 247.93555c158.75 158.75049 247.93555 374.0625 247.93555 598.5698l0 1316.8647c0 0.036621094 -0.030273438 0.06640625 -0.06640625 0.06640625l-7961.162 -0.06640625l0 0c-0.036132812 0 -0.06640625 -0.029785156 -0.06640625 -0.06640625l0.06640625 -1316.7983l0 0c0 -467.5122 378.99316 -846.5054 846.5049 -846.5054z" fill-rule="evenodd"/><path stroke="#f2d5dd" stroke-width="1.0" stroke-linejoin="round" stroke-linecap="butt" d="m9153.891 5094.7715l6268.2188 0c224.50684 0 439.81836 89.18506 598.56934 247.93555c158.75 158.75049 247.93555 374.0625 247.93555 598.5698l0 1316.8647c0 0.036621094 -0.030273438 0.06640625 -0.06640625 0.06640625l-7961.162 -0.06640625l0 0c-0.036132812 0 -0.06640625 -0.029785156 -0.06640625 -0.06640625l0.06640625 -1316.7983l0 0c0 -467.5122 378.99316 -846.5054 846.5049 -846.5054z" fill-rule="evenodd"/><path fill="#ffffff" d="m18691.605 9334.987l0 0c0 -573.50684 464.91992 -1038.4258 1038.4258 -1038.4258l0 0c275.4082 0 539.53516 109.40527 734.27734 304.14746c194.74219 194.74316 304.14844 458.87012 304.14844 734.2783l0 0c0 573.50586 -464.91992 1038.4248 -1038.4258 1038.4248l0 0c-573.50586 0 -1038.4258 -464.91895 -1038.4258 -1038.4248z" fill-rule="evenodd"/><path stroke="#ffffff" stroke-width="1.0" stroke-linejoin="round" stroke-linecap="butt" d="m18691.605 9334.987l0 0c0 -573.50684 464.91992 -1038.4258 1038.4258 -1038.4258l0 0c275.4082 0 539.53516 109.40527 734.27734 304.14746c194.74219 194.74316 304.14844 458.87012 304.14844 734.2783l0 0c0 573.50586 -464.91992 1038.4248 -1038.4258 1038.4248l0 0c-573.50586 0 -1038.4258 -464.91895 -1038.4258 -1038.4248z" fill-rule="evenodd"/></g></svg>