<svg version="1.1" viewBox="0.0 0.0 256.0 256.0" fill="none" stroke="none" stroke-linecap="square" stroke-miterlimit="10" xmlns:xlink="http://www.w3.org/1999/xlink" xmlns="http://www.w3.org/2000/svg"><clipPath id="p.0"><path d="m0 0l256.0 0l0 256.0l-256.0 0l0 -256.0z" clip-rule="nonzero"/></clipPath><g clip-path="url(#p.0)"><path fill="#000000" fill-opacity="0.0" d="m0 0l256.0 0l0 256.0l-256.0 0z" fill-rule="evenodd"/><path fill="#000000" fill-opacity="0.0" d="m203.5958 60.84777l0 0c0 13.689705 -16.040192 24.7874 -35.826767 24.7874q-17.913391 0 -35.826767 0q0 -12.3937 0 -24.7874l0 0c0 -13.689705 16.040192 -24.787403 35.826767 -24.787403l0 0c19.786575 0 35.826767 11.097698 35.826767 24.787403z" fill-rule="evenodd"/><path stroke="#d962a3" stroke-width="8.0" stroke-linejoin="round" stroke-linecap="butt" d="m203.5958 60.84777l0 0c0 13.689705 -16.040192 24.7874 -35.826767 24.7874q-17.913391 0 -35.826767 0q0 -12.3937 0 -24.7874l0 0c0 -13.689705 16.040192 -24.787403 35.826767 -24.787403l0 0c19.786575 0 35.826767 11.097698 35.826767 24.787403z" fill-rule="evenodd"/><path fill="#000000" fill-opacity="0.0" d="m74.48929 71.98436l0 0c-0.51314545 8.558243 11.275513 16.222275 26.330711 17.11811q13.629921 0.8110199 27.25985 1.6220474q0.46455383 -7.7480316 0.9291229 -15.496063l0 0c0.5131531 -8.558243 -11.275513 -16.222279 -26.330704 -17.11811l0 0c-15.055199 -0.89583206 -27.675827 5.315777 -28.18898 13.874016z" fill-rule="evenodd"/><path stroke="#d962a3" stroke-width="8.0" stroke-linejoin="round" stroke-linecap="butt" d="m74.48929 71.98436l0 0c-0.51314545 8.558243 11.275513 16.222275 26.330711 17.11811q13.629921 0.8110199 27.25985 1.6220474q0.46455383 -7.7480316 0.9291229 -15.496063l0 0c0.5131531 -8.558243 -11.275513 -16.222279 -26.330704 -17.11811l0 0c-15.055199 -0.89583206 -27.675827 5.315777 -28.18898 13.874016z" fill-rule="evenodd"/><path fill="#d962a3" d="m196.75066 121.84252l-49.228348 0l0 100.34646l49.228348 0zm-6.5010986 6.501091l0 87.34427l-36.22615 0l0 -87.34427z" fill-rule="evenodd"/><path stroke="#d962a3" stroke-width="1.0" stroke-linejoin="round" stroke-linecap="butt" d="m196.75066 121.84252l-49.228348 0l0 100.34646l49.228348 0zm-6.5010986 6.501091l0 87.34427l-36.22615 0l0 -87.34427z" fill-rule="evenodd"/><path fill="#d962a3" d="m108.60893 88.79002l38.897644 0l0 133.41733l-38.897644 0z" fill-rule="evenodd"/><path stroke="#d962a3" stroke-width="1.0" stroke-linejoin="round" stroke-linecap="butt" d="m108.60893 88.79002l38.897644 0l0 133.41733l-38.897644 0z" fill-rule="evenodd"/><path fill="#d962a3" d="m146.11548 87.538055l65.00787 0l0 39.2126l-65.00787 0zm6.395981 6.3959656l0 26.42067l52.215927 0l0 -26.42067z" fill-rule="evenodd"/><path stroke="#d962a3" stroke-width="1.0" stroke-linejoin="round" stroke-linecap="butt" d="m146.11548 87.538055l65.00787 0l0 39.2126l-65.00787 0zm6.395981 6.3959656l0 26.42067l52.215927 0l0 -26.42067z" fill-rule="evenodd"/><path fill="#d962a3" d="m60.475067 121.84252l49.228348 0l0 100.34646l-49.228348 0zm6.501091 6.501091l0 87.34427l36.22616 0l0 -87.34427z" fill-rule="evenodd"/><path stroke="#d962a3" stroke-width="1.0" stroke-linejoin="round" stroke-linecap="butt" d="m60.475067 121.84252l49.228348 0l0 100.34646l-49.228348 0zm6.501091 6.501091l0 87.34427l36.22616 0l0 -87.34427z" fill-rule="evenodd"/><path fill="#d962a3" d="m111.11024 87.538055l-65.00787 0l0 39.2126l65.00787 0zm-6.3959656 6.3959656l0 26.42067l-52.215942 0l0 -26.42067z" fill-rule="evenodd"/><path stroke="#d962a3" stroke-width="1.0" stroke-linejoin="round" stroke-linecap="butt" d="m111.11024 87.538055l-65.00787 0l0 39.2126l65.00787 0zm-6.3959656 6.3959656l0 26.42067l-52.215942 0l0 -26.42067z" fill-rule="evenodd"/></g></svg>