<svg version="1.1" viewBox="0.0 0.0 128.0 128.0" fill="none" stroke="none" stroke-linecap="square" stroke-miterlimit="10" xmlns:xlink="http://www.w3.org/1999/xlink" xmlns="http://www.w3.org/2000/svg"><clipPath id="p.0"><path d="m0 0l128.0 0l0 128.0l-128.0 0l0 -128.0z" clip-rule="nonzero"/></clipPath><g clip-path="url(#p.0)"><path fill="#000000" fill-opacity="0.0" d="m0 0l128.0 0l0 128.0l-128.0 0z" fill-rule="evenodd"/><path fill="#000000" fill-opacity="0.0" d="m84.01574 29.639477l0 0c10.567337 10.515152 10.172501 28.04303 -0.881897 39.14961q-10.007874 10.055115 -20.015743 20.110237q-9.566929 -9.519691 -19.133858 -19.039375l0 0c-10.567341 -10.515152 -10.172504 -28.043026 0.88188934 -39.149605l0 0c11.05439 -11.106577 28.582264 -11.5860195 39.14961 -1.0708656z" fill-rule="evenodd"/><path stroke="#f2c9dc" stroke-width="3.0" stroke-linejoin="round" stroke-linecap="butt" d="m84.01574 29.639477l0 0c10.567337 10.515152 10.172501 28.04303 -0.881897 39.14961q-10.007874 10.055115 -20.015743 20.110237q-9.566929 -9.519691 -19.133858 -19.039375l0 0c-10.567341 -10.515152 -10.172504 -28.043026 0.88188934 -39.149605l0 0c11.05439 -11.106577 28.582264 -11.5860195 39.14961 -1.0708656z" fill-rule="evenodd"/><path fill="#000000" fill-opacity="0.0" d="m53.181103 49.750656l0 0c0 -5.975113 4.8437843 -10.818897 10.818897 -10.818897l0 0c2.8693466 0 5.6211777 1.139843 7.650116 3.1687813c2.0289383 2.0289383 3.168785 4.7807655 3.168785 7.650116l0 0c0 5.975113 -4.843788 10.818897 -10.818901 10.818897l0 0c-5.975113 0 -10.818897 -4.8437843 -10.818897 -10.818897z" fill-rule="evenodd"/><path stroke="#f2c9dc" stroke-width="3.0" stroke-linejoin="round" stroke-linecap="butt" d="m53.181103 49.750656l0 0c0 -5.975113 4.8437843 -10.818897 10.818897 -10.818897l0 0c2.8693466 0 5.6211777 1.139843 7.650116 3.1687813c2.0289383 2.0289383 3.168785 4.7807655 3.168785 7.650116l0 0c0 5.975113 -4.843788 10.818897 -10.818901 10.818897l0 0c-5.975113 0 -10.818897 -4.8437843 -10.818897 -10.818897z" fill-rule="evenodd"/></g></svg>