<svg version="1.1" viewBox="0.0 0.0 200.0 50.0" fill="none" stroke="none" stroke-linecap="square" stroke-miterlimit="10" xmlns:xlink="http://www.w3.org/1999/xlink" xmlns="http://www.w3.org/2000/svg"><clipPath id="p.0"><path d="m0 0l200.0 0l0 50.0l-200.0 0l0 -50.0z" clip-rule="nonzero"/></clipPath><g clip-path="url(#p.0)"><path fill="#000000" fill-opacity="0.0" d="m0 0l200.0 0l0 50.0l-200.0 0z" fill-rule="evenodd"/><path fill="#d991b3" d="m88.62028 14.633493l3.2440948 -5.1338587l3.2440872 5.1338587z" fill-rule="evenodd"/><path fill="#d962a3" d="m92.72385 9.490191l3.2440948 5.1338577l3.2440948 -5.1338577z" fill-rule="evenodd"/><path fill="#d94aa7" d="m96.76423 14.633493l3.2440948 -5.1338587l3.2440948 5.1338587z" fill-rule="evenodd"/><path fill="#d962a3" d="m100.92196 9.490191l3.2440948 5.1338577l3.2440948 -5.1338577z" fill-rule="evenodd"/><path fill="#d991b3" d="m104.90818 14.633493l3.2440948 -5.1338587l3.2440948 5.1338587z" fill-rule="evenodd"/><path fill="#d962a3" d="m96.52613 15.42038l3.4645615 14.48819l3.464569 -14.48819z" fill-rule="evenodd"/><path fill="#d991b3" d="m104.48362 15.435334l5.719864 0.8366747l-9.273109 13.5113945z" fill-rule="evenodd"/><path fill="#d991b3" d="m104.47188 15.427035l2.627411 5.322671l4.284088 -5.322671z" fill-rule="evenodd"/><path fill="#d991b3" d="m95.526474 15.439784l-5.719864 0.8366747l9.273109 13.5113945z" fill-rule="evenodd"/><path fill="#d991b3" d="m95.53821 15.431486l-2.6274033 5.32267l-4.284096 -5.32267z" fill-rule="evenodd"/><path fill="#000000" fill-opacity="0.0" d="m105.09415 26.78872l0 0c2.8266525 2.8614426 2.8407516 7.4796066 0.03149414 10.3149605c-2.8092575 2.83535 -7.378067 2.8141975 -10.204727 -0.047245026c-2.8266525 -2.8614426 -2.8407516 -7.4796085 -0.03149414 -10.3149605l5.1181107 5.1811028z" fill-rule="evenodd"/><path stroke="#f2c9dc" stroke-width="1.0" stroke-linejoin="round" stroke-linecap="butt" d="m105.09415 26.78872l0 0c2.8266525 2.8614426 2.8407516 7.4796066 0.03149414 10.3149605c-2.8092575 2.83535 -7.378067 2.8141975 -10.204727 -0.047245026c-2.8266525 -2.8614426 -2.8407516 -7.4796085 -0.03149414 -10.3149605l5.1181107 5.1811028z" fill-rule="evenodd"/><path fill="#f2c9dc" d="m112.8414 25.640825l2.7086563 -1.2125988l-0.06298828 3.0708675z" fill-rule="evenodd"/><path fill="#f2c9dc" d="m115.903625 24.658386l-0.06298828 3.0708675l2.7086563 -1.2125988z" fill-rule="evenodd"/><path fill="#f2c9dc" d="m116.2037 27.95013l2.7086563 -1.2125988l-0.06298828 3.0708656z" fill-rule="evenodd"/><path fill="#f2c9dc" d="m119.288284 26.98305l-0.06299591 3.0708656l2.708664 -1.2125988z" fill-rule="evenodd"/><path fill="#f2c9dc" d="m119.565994 30.259436l2.7086563 -1.2125988l-0.06298828 3.0708656z" fill-rule="evenodd"/><path fill="#f2c9dc" d="m115.86956 28.206291l-2.5354385 7.0393677l5.401573 -5.0551167z" fill-rule="evenodd"/><path fill="#f2c9dc" d="m119.161575 30.464283l2.1329803 1.9703293l-7.5327225 3.005867z" fill-rule="evenodd"/><path fill="#f2c9dc" d="m119.159004 30.457495l-0.37363434 2.9644566l3.2280579 -1.0052452z" fill-rule="evenodd"/><path fill="#f2c9dc" d="m115.46109 27.927044l-2.5915833 -1.2725067l0.12680054 8.263191z" fill-rule="evenodd"/><path fill="#f2c9dc" d="m115.468216 27.92691l-2.5438538 1.4748688l-0.31056976 -3.434082z" fill-rule="evenodd"/><path fill="#000000" fill-opacity="0.0" d="m116.27161 35.387882l0 0c0.3826828 1.9917068 -0.8723297 3.9165268 -2.803154 4.2992134c-1.9308243 0.38268661 -3.8062897 -0.92168045 -4.1889725 -2.9133873c-0.38269043 -1.991703 0.8723221 -3.9165268 2.8031464 -4.2992096l0.69291687 3.6062965z" fill-rule="evenodd"/><path stroke="#f2c9dc" stroke-width="1.0" stroke-linejoin="round" stroke-linecap="butt" d="m116.27161 35.387882l0 0c0.3826828 1.9917068 -0.8723297 3.9165268 -2.803154 4.2992134c-1.9308243 0.38268661 -3.8062897 -0.92168045 -4.1889725 -2.9133873c-0.38269043 -1.991703 0.8723221 -3.9165268 2.8031464 -4.2992096l0.69291687 3.6062965z" fill-rule="evenodd"/><path fill="#f2c9dc" d="m87.1586 25.640825l-2.7086563 -1.2125988l0.06298828 3.0708675z" fill-rule="evenodd"/><path fill="#f2c9dc" d="m84.096375 24.658386l0.06298828 3.0708675l-2.7086563 -1.2125988z" fill-rule="evenodd"/><path fill="#f2c9dc" d="m83.7963 27.95013l-2.7086563 -1.2125988l0.06298828 3.0708656z" fill-rule="evenodd"/><path fill="#f2c9dc" d="m80.711716 26.98305l0.06299591 3.0708656l-2.708664 -1.2125988z" fill-rule="evenodd"/><path fill="#f2c9dc" d="m80.434006 30.259436l-2.7086563 -1.2125988l0.06298828 3.0708656z" fill-rule="evenodd"/><path fill="#f2c9dc" d="m84.13044 28.206291l2.5354385 7.0393677l-5.401573 -5.0551167z" fill-rule="evenodd"/><path fill="#f2c9dc" d="m80.838425 30.464283l-2.1329803 1.9703293l7.5327225 3.005867z" fill-rule="evenodd"/><path fill="#f2c9dc" d="m80.840996 30.457495l0.37363434 2.9644566l-3.2280579 -1.0052452z" fill-rule="evenodd"/><path fill="#f2c9dc" d="m84.53891 27.927044l2.5915833 -1.2725067l-0.12680054 8.263191z" fill-rule="evenodd"/><path fill="#f2c9dc" d="m84.531784 27.92691l2.5438538 1.4748688l0.31056976 -3.434082z" fill-rule="evenodd"/><path fill="#000000" fill-opacity="0.0" d="m83.72839 35.387882l0 0c-0.3826828 1.9917068 0.8723297 3.9165268 2.803154 4.2992134c1.9308243 0.38268661 3.8062897 -0.92168045 4.1889725 -2.9133873c0.38269043 -1.991703 -0.8723221 -3.9165268 -2.8031464 -4.2992096l-0.69291687 3.6062965z" fill-rule="evenodd"/><path stroke="#f2c9dc" stroke-width="1.0" stroke-linejoin="round" stroke-linecap="butt" d="m83.72839 35.387882l0 0c-0.3826828 1.9917068 0.8723297 3.9165268 2.803154 4.2992134c1.9308243 0.38268661 3.8062897 -0.92168045 4.1889725 -2.9133873c0.38269043 -1.991703 -0.8723221 -3.9165268 -2.8031464 -4.2992096l-0.69291687 3.6062965z" fill-rule="evenodd"/></g></svg>