<svg version="1.1" viewBox="0.0 0.0 256.0 256.0" fill="none" stroke="none" stroke-linecap="square" stroke-miterlimit="10" xmlns:xlink="http://www.w3.org/1999/xlink" xmlns="http://www.w3.org/2000/svg"><clipPath id="p.0"><path d="m0 0l256.0 0l0 256.0l-256.0 0l0 -256.0z" clip-rule="nonzero"/></clipPath><g clip-path="url(#p.0)"><path fill="#000000" fill-opacity="0.0" d="m0 0l256.0 0l0 256.0l-256.0 0z" fill-rule="evenodd"/><path fill="#000000" fill-opacity="0.0" d="m57.862934 59.212597l95.537674 0l19.108002 19.107998l0 118.466805l-114.645676 0z" fill-rule="evenodd"/><path stroke="#f2b6cc" stroke-width="4.0" stroke-linejoin="round" stroke-linecap="butt" d="m57.862934 59.212597l95.537674 0l19.108002 19.107998l0 118.466805l-114.645676 0z" fill-rule="evenodd"/><path fill="#000000" fill-opacity="0.0" d="m73.873436 80.86614l79.27558 0" fill-rule="evenodd"/><path stroke="#f2b6cc" stroke-width="4.0" stroke-linejoin="round" stroke-linecap="butt" d="m73.873436 80.86614l79.27558 0" fill-rule="evenodd"/><path fill="#000000" fill-opacity="0.0" d="m73.873436 96.86614l79.27558 0" fill-rule="evenodd"/><path stroke="#f2b6cc" stroke-width="4.0" stroke-linejoin="round" stroke-linecap="butt" d="m73.873436 96.86614l79.27558 0" fill-rule="evenodd"/><path fill="#000000" fill-opacity="0.0" d="m73.873436 112.86614l79.27558 0" fill-rule="evenodd"/><path stroke="#f2b6cc" stroke-width="4.0" stroke-linejoin="round" stroke-linecap="butt" d="m73.873436 112.86614l79.27558 0" fill-rule="evenodd"/><path fill="#000000" fill-opacity="0.0" d="m73.873436 128.86613l79.27558 0" fill-rule="evenodd"/><path stroke="#f2b6cc" stroke-width="4.0" stroke-linejoin="round" stroke-linecap="butt" d="m73.873436 128.86613l79.27558 0" fill-rule="evenodd"/><path fill="#000000" fill-opacity="0.0" d="m73.873436 144.86613l79.27558 0" fill-rule="evenodd"/><path stroke="#f2b6cc" stroke-width="4.0" stroke-linejoin="round" stroke-linecap="butt" d="m73.873436 144.86613l79.27558 0" fill-rule="evenodd"/><path fill="#000000" fill-opacity="0.0" d="m73.873436 160.86613l79.27558 0" fill-rule="evenodd"/><path stroke="#f2b6cc" stroke-width="4.0" stroke-linejoin="round" stroke-linecap="butt" d="m73.873436 160.86613l79.27558 0" fill-rule="evenodd"/><path fill="#000000" fill-opacity="0.0" d="m73.873436 176.86613l79.27558 0" fill-rule="evenodd"/><path stroke="#f2b6cc" stroke-width="4.0" stroke-linejoin="round" stroke-linecap="butt" d="m73.873436 176.86613l79.27558 0" fill-rule="evenodd"/><path fill="#ffffff" d="m176.32535 68.19139l12.833588 12.833588l-54.478104 54.478104l-20.036316 7.2027283l7.2027283 -20.036324z" fill-rule="evenodd"/><path stroke="#f2b6cc" stroke-width="4.0" stroke-linejoin="round" stroke-linecap="butt" d="m176.32535 68.19139l12.833588 12.833588l-54.478104 54.478104l-20.036316 7.2027283l7.2027283 -20.036324z" fill-rule="evenodd"/><path fill="#ffffff" d="m183.80759 60.70915l0 0c0.8261566 -0.8261566 2.165619 -0.8261566 2.9917755 0l9.836243 9.836239c0.39674377 0.39673615 0.61961365 0.9348221 0.61961365 1.4958878c0 0.5610733 -0.22286987 1.0991592 -0.61961365 1.4958954l-5.983383 5.9833755c-0.8261566 0.8261566 -2.165619 0.8261566 -2.9917755 0l-9.836243 -9.836235c-0.8261566 -0.82616425 -0.8261566 -2.1656265 0 -2.9917831z" fill-rule="evenodd"/><path stroke="#f2b6cc" stroke-width="4.0" stroke-linejoin="round" stroke-linecap="butt" d="m183.80759 60.70915l0 0c0.8261566 -0.8261566 2.165619 -0.8261566 2.9917755 0l9.836243 9.836239c0.39674377 0.39673615 0.61961365 0.9348221 0.61961365 1.4958878c0 0.5610733 -0.22286987 1.0991592 -0.61961365 1.4958954l-5.983383 5.9833755c-0.8261566 0.8261566 -2.165619 0.8261566 -2.9917755 0l-9.836243 -9.836235c-0.8261566 -0.82616425 -0.8261566 -2.1656265 0 -2.9917831z" fill-rule="evenodd"/></g></svg>